<svg version="1.1"
baseProfile="full"
xmlns="http://www.w3.org/2000/svg">
<rect width="100%" height="100%" fill="white" />
<circle cx = "100" cy = "100" r = "100" fill = "red"/>
<rect x = "50" y = "15" width="10" height="15" fill="green" stroke = "yellow" stroke-width="0.6" />
<rect x = "60" y = "15" width="10" height="15" fill="green" stroke = "yellow" stroke-width="0.6" />
<rect x = "70" y = "15" width="10" height="15" fill="green" stroke = "yellow" stroke-width="0.6" />
<rect x = "80" y = "15" width="10" height="15" fill="green" stroke = "yellow" stroke-width="0.6" />
<rect x = "90" y = "15" width="10" height="15" fill="green" stroke = "yellow" stroke-width="0.6" />
<rect x = "100" y = "15" width="10" height="15" fill="green" stroke = "yellow" stroke-width="0.6" />
<rect x = "110" y = "15" width="10" height="15" fill="green" stroke = "yellow" stroke-width="0.6" />
<rect x = "120" y = "15" width="10" height="15" fill="green" stroke = "yellow" stroke-width="0.6" />
<rect x = "130" y = "15" width="10" height="15" fill="green" stroke = "yellow" stroke-width="0.6" />
<rect x = "140" y = "15" width="10" height="15" fill="green" stroke = "yellow" stroke-width="0.6" />
<rect x = "30" y = "30" width="10" height="15" fill="green" stroke = "yellow" stroke-width="0.6" />
<rect x = "40" y = "30" width="10" height="15" fill="green" stroke = "yellow" stroke-width="0.6" />
<rect x = "50" y = "30" width="10" height="15" fill="green" stroke = "yellow" stroke-width="0.6" />
<rect x = "60" y = "30" width="10" height="15" fill="green" stroke = "yellow" stroke-width="0.6" />
<rect x = "70" y = "30" width="10" height="15" fill="green" stroke = "yellow" stroke-width="0.6" />
<rect x = "80" y = "30" width="10" height="15" fill="green" stroke = "yellow" stroke-width="0.6" />
<rect x = "90" y = "30" width="10" height="15" fill="green" stroke = "yellow" stroke-width="0.6" />
<rect x = "100" y = "30" width="10" height="15" fill="green" stroke = "yellow" stroke-width="0.6" />
<rect x = "110" y = "30" width="10" height="15" fill="green" stroke = "yellow" stroke-width="0.6" />
<rect x = "120" y = "30" width="10" height="15" fill="green" stroke = "yellow" stroke-width="0.6" />
<rect x = "130" y = "30" width="10" height="15" fill="green" stroke = "yellow" stroke-width="0.6" />
<rect x = "140" y = "30" width="10" height="15" fill="green" stroke = "yellow" stroke-width="0.6" />
<rect x = "150" y = "30" width="10" height="15" fill="green" stroke = "yellow" stroke-width="0.6" />
<rect x = "160" y = "30" width="10" height="15" fill="green" stroke = "yellow" stroke-width="0.6" />
<rect x = "20" y = "45" width="10" height="15" fill="green" stroke = "yellow" stroke-width="0.6" />
<rect x = "30" y = "45" width="10" height="15" fill="green" stroke = "yellow" stroke-width="0.6" />
<rect x = "40" y = "45" width="10" height="15" fill="green" stroke = "yellow" stroke-width="0.6" />
<rect x = "50" y = "45" width="10" height="15" fill="green" stroke = "yellow" stroke-width="0.6" />
<rect x = "60" y = "45" width="10" height="15" fill="green" stroke = "yellow" stroke-width="0.6" />
<rect x = "70" y = "45" width="10" height="15" fill="green" stroke = "yellow" stroke-width="0.6" />
<rect x = "80" y = "45" width="10" height="15" fill="green" stroke = "yellow" stroke-width="0.6" />
<rect x = "90" y = "45" width="10" height="15" fill="green" stroke = "yellow" stroke-width="0.6" />
<rect x = "100" y = "45" width="10" height="15" fill="green" stroke = "yellow" stroke-width="0.6" />
<rect x = "110" y = "45" width="10" height="15" fill="green" stroke = "yellow" stroke-width="0.6" />
<rect x = "120" y = "45" width="10" height="15" fill="green" stroke = "yellow" stroke-width="0.6" />
<rect x = "130" y = "45" width="10" height="15" fill="green" stroke = "yellow" stroke-width="0.6" />
<rect x = "140" y = "45" width="10" height="15" fill="green" stroke = "yellow" stroke-width="0.6" />
<rect x = "150" y = "45" width="10" height="15" fill="green" stroke = "yellow" stroke-width="0.6" />
<rect x = "160" y = "45" width="10" height="15" fill="green" stroke = "yellow" stroke-width="0.6" />
<rect x = "170" y = "45" width="10" height="15" fill="green" stroke = "yellow" stroke-width="0.6" />
<rect x = "10" y = "60" width="10" height="15" fill="green" stroke = "yellow" stroke-width="0.6" />
<rect x = "20" y = "60" width="10" height="15" fill="green" stroke = "yellow" stroke-width="0.6" />
<rect x = "30" y = "60" width="10" height="15" fill="green" stroke = "yellow" stroke-width="0.6" />
<rect x = "40" y = "60" width="10" height="15" fill="green" stroke = "yellow" stroke-width="0.6" />
<rect x = "50" y = "60" width="10" height="15" fill="green" stroke = "yellow" stroke-width="0.6" />
<rect x = "60" y = "60" width="10" height="15" fill="green" stroke = "yellow" stroke-width="0.6" />
<rect x = "70" y = "60" width="10" height="15" fill="green" stroke = "yellow" stroke-width="0.6" />
<rect x = "80" y = "60" width="10" height="15" fill="green" stroke = "yellow" stroke-width="0.6" />
<rect x = "90" y = "60" width="10" height="15" fill="green" stroke = "yellow" stroke-width="0.6" />
<rect x = "100" y = "60" width="10" height="15" fill="green" stroke = "yellow" stroke-width="0.6" />
<rect x = "110" y = "60" width="10" height="15" fill="green" stroke = "yellow" stroke-width="0.6" />
<rect x = "120" y = "60" width="10" height="15" fill="green" stroke = "yellow" stroke-width="0.6" />
<rect x = "130" y = "60" width="10" height="15" fill="green" stroke = "yellow" stroke-width="0.6" />
<rect x = "140" y = "60" width="10" height="15" fill="green" stroke = "yellow" stroke-width="0.6" />
<rect x = "150" y = "60" width="10" height="15" fill="green" stroke = "yellow" stroke-width="0.6" />
<rect x = "160" y = "60" width="10" height="15" fill="green" stroke = "yellow" stroke-width="0.6" />
<rect x = "170" y = "60" width="10" height="15" fill="green" stroke = "yellow" stroke-width="0.6" />
<rect x = "180" y = "60" width="10" height="15" fill="green" stroke = "yellow" stroke-width="0.6" />
<rect x = "10" y = "75" width="10" height="15" fill="green" stroke = "yellow" stroke-width="0.6" />
<rect x = "20" y = "75" width="10" height="15" fill="green" stroke = "yellow" stroke-width="0.6" />
<rect x = "30" y = "75" width="10" height="15" fill="green" stroke = "yellow" stroke-width="0.6" />
<rect x = "40" y = "75" width="10" height="15" fill="green" stroke = "yellow" stroke-width="0.6" />
<rect x = "50" y = "75" width="10" height="15" fill="green" stroke = "yellow" stroke-width="0.6" />
<rect x = "60" y = "75" width="10" height="15" fill="green" stroke = "yellow" stroke-width="0.6" />
<rect x = "70" y = "75" width="10" height="15" fill="green" stroke = "yellow" stroke-width="0.6" />
<rect x = "80" y = "75" width="10" height="15" fill="green" stroke = "yellow" stroke-width="0.6" />
<rect x = "90" y = "75" width="10" height="15" fill="green" stroke = "yellow" stroke-width="0.6" />
<rect x = "100" y = "75" width="10" height="15" fill="green" stroke = "yellow" stroke-width="0.6" />
<rect x = "110" y = "75" width="10" height="15" fill="green" stroke = "yellow" stroke-width="0.6" />
<rect x = "120" y = "75" width="10" height="15" fill="green" stroke = "yellow" stroke-width="0.6" />
<rect x = "130" y = "75" width="10" height="15" fill="green" stroke = "yellow" stroke-width="0.6" />
<rect x = "140" y = "75" width="10" height="15" fill="green" stroke = "yellow" stroke-width="0.6" />
<rect x = "150" y = "75" width="10" height="15" fill="green" stroke = "yellow" stroke-width="0.6" />
<rect x = "160" y = "75" width="10" height="15" fill="green" stroke = "yellow" stroke-width="0.6" />
<rect x = "170" y = "75" width="10" height="15" fill="green" stroke = "yellow" stroke-width="0.6" />
<rect x = "180" y = "75" width="10" height="15" fill="green" stroke = "yellow" stroke-width="0.6" />
<rect x = "10" y = "90" width="10" height="15" fill="green" stroke = "yellow" stroke-width="0.6" />
<rect x = "20" y = "90" width="10" height="15" fill="green" stroke = "yellow" stroke-width="0.6" />
<rect x = "30" y = "90" width="10" height="15" fill="green" stroke = "yellow" stroke-width="0.6" />
<rect x = "40" y = "90" width="10" height="15" fill="green" stroke = "yellow" stroke-width="0.6" />
<rect x = "50" y = "90" width="10" height="15" fill="green" stroke = "yellow" stroke-width="0.6" />
<rect x = "60" y = "90" width="10" height="15" fill="green" stroke = "yellow" stroke-width="0.6" />
<rect x = "70" y = "90" width="10" height="15" fill="green" stroke = "yellow" stroke-width="0.6" />
<rect x = "80" y = "90" width="10" height="15" fill="green" stroke = "yellow" stroke-width="0.6" />
<rect x = "90" y = "90" width="10" height="15" fill="green" stroke = "yellow" stroke-width="0.6" />
<rect x = "100" y = "90" width="10" height="15" fill="green" stroke = "yellow" stroke-width="0.6" />
<rect x = "110" y = "90" width="10" height="15" fill="green" stroke = "yellow" stroke-width="0.6" />
<rect x = "120" y = "90" width="10" height="15" fill="green" stroke = "yellow" stroke-width="0.6" />
<rect x = "130" y = "90" width="10" height="15" fill="green" stroke = "yellow" stroke-width="0.6" />
<rect x = "140" y = "90" width="10" height="15" fill="green" stroke = "yellow" stroke-width="0.6" />
<rect x = "150" y = "90" width="10" height="15" fill="green" stroke = "yellow" stroke-width="0.6" />
<rect x = "160" y = "90" width="10" height="15" fill="green" stroke = "yellow" stroke-width="0.6" />
<rect x = "170" y = "90" width="10" height="15" fill="green" stroke = "yellow" stroke-width="0.6" />
<rect x = "180" y = "90" width="10" height="15" fill="green" stroke = "yellow" stroke-width="0.6" />
<rect x = "10" y = "105" width="10" height="15" fill="green" stroke = "yellow" stroke-width="0.6" />
<rect x = "20" y = "105" width="10" height="15" fill="green" stroke = "yellow" stroke-width="0.6" />
<rect x = "30" y = "105" width="10" height="15" fill="green" stroke = "yellow" stroke-width="0.6" />
<rect x = "40" y = "105" width="10" height="15" fill="green" stroke = "yellow" stroke-width="0.6" />
<rect x = "50" y = "105" width="10" height="15" fill="green" stroke = "yellow" stroke-width="0.6" />
<rect x = "60" y = "105" width="10" height="15" fill="green" stroke = "yellow" stroke-width="0.6" />
<rect x = "70" y = "105" width="10" height="15" fill="green" stroke = "yellow" stroke-width="0.6" />
<rect x = "80" y = "105" width="10" height="15" fill="green" stroke = "yellow" stroke-width="0.6" />
<rect x = "90" y = "105" width="10" height="15" fill="green" stroke = "yellow" stroke-width="0.6" />
<rect x = "100" y = "105" width="10" height="15" fill="green" stroke = "yellow" stroke-width="0.6" />
<rect x = "110" y = "105" width="10" height="15" fill="green" stroke = "yellow" stroke-width="0.6" />
<rect x = "120" y = "105" width="10" height="15" fill="green" stroke = "yellow" stroke-width="0.6" />
<rect x = "130" y = "105" width="10" height="15" fill="green" stroke = "yellow" stroke-width="0.6" />
<rect x = "140" y = "105" width="10" height="15" fill="green" stroke = "yellow" stroke-width="0.6" />
<rect x = "150" y = "105" width="10" height="15" fill="green" stroke = "yellow" stroke-width="0.6" />
<rect x = "160" y = "105" width="10" height="15" fill="green" stroke = "yellow" stroke-width="0.6" />
<rect x = "170" y = "105" width="10" height="15" fill="green" stroke = "yellow" stroke-width="0.6" />
<rect x = "180" y = "105" width="10" height="15" fill="green" stroke = "yellow" stroke-width="0.6" />
<rect x = "10" y = "120" width="10" height="15" fill="green" stroke = "yellow" stroke-width="0.6" />
<rect x = "20" y = "120" width="10" height="15" fill="green" stroke = "yellow" stroke-width="0.6" />
<rect x = "30" y = "120" width="10" height="15" fill="green" stroke = "yellow" stroke-width="0.6" />
<rect x = "40" y = "120" width="10" height="15" fill="green" stroke = "yellow" stroke-width="0.6" />
<rect x = "50" y = "120" width="10" height="15" fill="green" stroke = "yellow" stroke-width="0.6" />
<rect x = "60" y = "120" width="10" height="15" fill="green" stroke = "yellow" stroke-width="0.6" />
<rect x = "70" y = "120" width="10" height="15" fill="green" stroke = "yellow" stroke-width="0.6" />
<rect x = "80" y = "120" width="10" height="15" fill="green" stroke = "yellow" stroke-width="0.6" />
<rect x = "90" y = "120" width="10" height="15" fill="green" stroke = "yellow" stroke-width="0.6" />
<rect x = "100" y = "120" width="10" height="15" fill="green" stroke = "yellow" stroke-width="0.6" />
<rect x = "110" y = "120" width="10" height="15" fill="green" stroke = "yellow" stroke-width="0.6" />
<rect x = "120" y = "120" width="10" height="15" fill="green" stroke = "yellow" stroke-width="0.6" />
<rect x = "130" y = "120" width="10" height="15" fill="green" stroke = "yellow" stroke-width="0.6" />
<rect x = "140" y = "120" width="10" height="15" fill="green" stroke = "yellow" stroke-width="0.6" />
<rect x = "150" y = "120" width="10" height="15" fill="green" stroke = "yellow" stroke-width="0.6" />
<rect x = "160" y = "120" width="10" height="15" fill="green" stroke = "yellow" stroke-width="0.6" />
<rect x = "170" y = "120" width="10" height="15" fill="green" stroke = "yellow" stroke-width="0.6" />
<rect x = "180" y = "120" width="10" height="15" fill="green" stroke = "yellow" stroke-width="0.6" />
<rect x = "20" y = "135" width="10" height="15" fill="green" stroke = "yellow" stroke-width="0.6" />
<rect x = "30" y = "135" width="10" height="15" fill="green" stroke = "yellow" stroke-width="0.6" />
<rect x = "40" y = "135" width="10" height="15" fill="green" stroke = "yellow" stroke-width="0.6" />
<rect x = "50" y = "135" width="10" height="15" fill="green" stroke = "yellow" stroke-width="0.6" />
<rect x = "60" y = "135" width="10" height="15" fill="green" stroke = "yellow" stroke-width="0.6" />
<rect x = "70" y = "135" width="10" height="15" fill="green" stroke = "yellow" stroke-width="0.6" />
<rect x = "80" y = "135" width="10" height="15" fill="green" stroke = "yellow" stroke-width="0.6" />
<rect x = "90" y = "135" width="10" height="15" fill="green" stroke = "yellow" stroke-width="0.6" />
<rect x = "100" y = "135" width="10" height="15" fill="green" stroke = "yellow" stroke-width="0.6" />
<rect x = "110" y = "135" width="10" height="15" fill="green" stroke = "yellow" stroke-width="0.6" />
<rect x = "120" y = "135" width="10" height="15" fill="green" stroke = "yellow" stroke-width="0.6" />
<rect x = "130" y = "135" width="10" height="15" fill="green" stroke = "yellow" stroke-width="0.6" />
<rect x = "140" y = "135" width="10" height="15" fill="green" stroke = "yellow" stroke-width="0.6" />
<rect x = "150" y = "135" width="10" height="15" fill="green" stroke = "yellow" stroke-width="0.6" />
<rect x = "160" y = "135" width="10" height="15" fill="green" stroke = "yellow" stroke-width="0.6" />
<rect x = "170" y = "135" width="10" height="15" fill="green" stroke = "yellow" stroke-width="0.6" />
<rect x = "30" y = "150" width="10" height="15" fill="green" stroke = "yellow" stroke-width="0.6" />
<rect x = "40" y = "150" width="10" height="15" fill="green" stroke = "yellow" stroke-width="0.6" />
<rect x = "50" y = "150" width="10" height="15" fill="green" stroke = "yellow" stroke-width="0.6" />
<rect x = "60" y = "150" width="10" height="15" fill="green" stroke = "yellow" stroke-width="0.6" />
<rect x = "70" y = "150" width="10" height="15" fill="green" stroke = "yellow" stroke-width="0.6" />
<rect x = "80" y = "150" width="10" height="15" fill="green" stroke = "yellow" stroke-width="0.6" />
<rect x = "90" y = "150" width="10" height="15" fill="green" stroke = "yellow" stroke-width="0.6" />
<rect x = "100" y = "150" width="10" height="15" fill="green" stroke = "yellow" stroke-width="0.6" />
<rect x = "110" y = "150" width="10" height="15" fill="green" stroke = "yellow" stroke-width="0.6" />
<rect x = "120" y = "150" width="10" height="15" fill="green" stroke = "yellow" stroke-width="0.6" />
<rect x = "130" y = "150" width="10" height="15" fill="green" stroke = "yellow" stroke-width="0.6" />
<rect x = "140" y = "150" width="10" height="15" fill="green" stroke = "yellow" stroke-width="0.6" />
<rect x = "150" y = "150" width="10" height="15" fill="green" stroke = "yellow" stroke-width="0.6" />
<rect x = "160" y = "150" width="10" height="15" fill="green" stroke = "yellow" stroke-width="0.6" />
<rect x = "40" y = "165" width="10" height="15" fill="green" stroke = "yellow" stroke-width="0.6" />
<rect x = "50" y = "165" width="10" height="15" fill="green" stroke = "yellow" stroke-width="0.6" />
<rect x = "60" y = "165" width="10" height="15" fill="green" stroke = "yellow" stroke-width="0.6" />
<rect x = "70" y = "165" width="10" height="15" fill="green" stroke = "yellow" stroke-width="0.6" />
<rect x = "80" y = "165" width="10" height="15" fill="green" stroke = "yellow" stroke-width="0.6" />
<rect x = "90" y = "165" width="10" height="15" fill="green" stroke = "yellow" stroke-width="0.6" />
<rect x = "100" y = "165" width="10" height="15" fill="green" stroke = "yellow" stroke-width="0.6" />
<rect x = "110" y = "165" width="10" height="15" fill="green" stroke = "yellow" stroke-width="0.6" />
<rect x = "120" y = "165" width="10" height="15" fill="green" stroke = "yellow" stroke-width="0.6" />
<rect x = "130" y = "165" width="10" height="15" fill="green" stroke = "yellow" stroke-width="0.6" />
<rect x = "140" y = "165" width="10" height="15" fill="green" stroke = "yellow" stroke-width="0.6" />
<rect x = "150" y = "165" width="10" height="15" fill="green" stroke = "yellow" stroke-width="0.6" />
<rect x = "70" y = "180" width="10" height="15" fill="green" stroke = "yellow" stroke-width="0.6" />
<rect x = "80" y = "180" width="10" height="15" fill="green" stroke = "yellow" stroke-width="0.6" />
<rect x = "90" y = "180" width="10" height="15" fill="green" stroke = "yellow" stroke-width="0.6" />
<rect x = "100" y = "180" width="10" height="15" fill="green" stroke = "yellow" stroke-width="0.6" />
<rect x = "110" y = "180" width="10" height="15" fill="green" stroke = "yellow" stroke-width="0.6" />
<rect x = "120" y = "180" width="10" height="15" fill="green" stroke = "yellow" stroke-width="0.6" />
</svg>
