<svg version="1.1"
baseProfile="full"
xmlns="http://www.w3.org/2000/svg">
<rect width="100%" height="100%" fill="white" />
<circle cx = "100" cy = "100" r = "100" fill = "red"/>
<polygon points = "52.5 12.9904, 60 25.9808, 45 25.9808" fill = "green" stroke = "yellow" stroke-width = "0.6"/>
<polygon points = "67.5 12.9904, 75 25.9808, 60 25.9808" fill = "green" stroke = "yellow" stroke-width = "0.6"/>
<polygon points = "82.5 12.9904, 90 25.9808, 75 25.9808" fill = "green" stroke = "yellow" stroke-width = "0.6"/>
<polygon points = "97.5 12.9904, 105 25.9808, 90 25.9808" fill = "green" stroke = "yellow" stroke-width = "0.6"/>
<polygon points = "112.5 12.9904, 120 25.9808, 105 25.9808" fill = "green" stroke = "yellow" stroke-width = "0.6"/>
<polygon points = "127.5 12.9904, 135 25.9808, 120 25.9808" fill = "green" stroke = "yellow" stroke-width = "0.6"/>
<polygon points = "142.5 12.9904, 150 25.9808, 135 25.9808" fill = "green" stroke = "yellow" stroke-width = "0.6"/>
<polygon points = "52.5 12.9904, 67.5 12.9904, 60 25.9808" fill = "green" stroke = "yellow" stroke-width = "0.6"/>
<polygon points = "67.5 12.9904, 82.5 12.9904, 75 25.9808" fill = "green" stroke = "yellow" stroke-width = "0.6"/>
<polygon points = "82.5 12.9904, 97.5 12.9904, 90 25.9808" fill = "green" stroke = "yellow" stroke-width = "0.6"/>
<polygon points = "97.5 12.9904, 112.5 12.9904, 105 25.9808" fill = "green" stroke = "yellow" stroke-width = "0.6"/>
<polygon points = "112.5 12.9904, 127.5 12.9904, 120 25.9808" fill = "green" stroke = "yellow" stroke-width = "0.6"/>
<polygon points = "127.5 12.9904, 142.5 12.9904, 135 25.9808" fill = "green" stroke = "yellow" stroke-width = "0.6"/>
<polygon points = "45 25.9808, 60 25.9808, 52.5 38.9711" fill = "green" stroke = "yellow" stroke-width = "0.6"/>
<polygon points = "60 25.9808, 75 25.9808, 67.5 38.9711" fill = "green" stroke = "yellow" stroke-width = "0.6"/>
<polygon points = "75 25.9808, 90 25.9808, 82.5 38.9711" fill = "green" stroke = "yellow" stroke-width = "0.6"/>
<polygon points = "90 25.9808, 105 25.9808, 97.5 38.9711" fill = "green" stroke = "yellow" stroke-width = "0.6"/>
<polygon points = "105 25.9808, 120 25.9808, 112.5 38.9711" fill = "green" stroke = "yellow" stroke-width = "0.6"/>
<polygon points = "120 25.9808, 135 25.9808, 127.5 38.9711" fill = "green" stroke = "yellow" stroke-width = "0.6"/>
<polygon points = "135 25.9808, 150 25.9808, 142.5 38.9711" fill = "green" stroke = "yellow" stroke-width = "0.6"/>
<polygon points = "150 25.9808, 165 25.9808, 157.5 38.9711" fill = "green" stroke = "yellow" stroke-width = "0.6"/>
<polygon points = "45 25.9808, 52.5 38.9711, 37.5 38.9711" fill = "green" stroke = "yellow" stroke-width = "0.6"/>
<polygon points = "60 25.9808, 67.5 38.9711, 52.5 38.9711" fill = "green" stroke = "yellow" stroke-width = "0.6"/>
<polygon points = "75 25.9808, 82.5 38.9711, 67.5 38.9711" fill = "green" stroke = "yellow" stroke-width = "0.6"/>
<polygon points = "90 25.9808, 97.5 38.9711, 82.5 38.9711" fill = "green" stroke = "yellow" stroke-width = "0.6"/>
<polygon points = "105 25.9808, 112.5 38.9711, 97.5 38.9711" fill = "green" stroke = "yellow" stroke-width = "0.6"/>
<polygon points = "120 25.9808, 127.5 38.9711, 112.5 38.9711" fill = "green" stroke = "yellow" stroke-width = "0.6"/>
<polygon points = "135 25.9808, 142.5 38.9711, 127.5 38.9711" fill = "green" stroke = "yellow" stroke-width = "0.6"/>
<polygon points = "150 25.9808, 157.5 38.9711, 142.5 38.9711" fill = "green" stroke = "yellow" stroke-width = "0.6"/>
<polygon points = "165 25.9808, 172.5 38.9711, 157.5 38.9711" fill = "green" stroke = "yellow" stroke-width = "0.6"/>
<polygon points = "22.5 38.9711, 30 51.9615, 15 51.9615" fill = "green" stroke = "yellow" stroke-width = "0.6"/>
<polygon points = "37.5 38.9711, 45 51.9615, 30 51.9615" fill = "green" stroke = "yellow" stroke-width = "0.6"/>
<polygon points = "52.5 38.9711, 60 51.9615, 45 51.9615" fill = "green" stroke = "yellow" stroke-width = "0.6"/>
<polygon points = "67.5 38.9711, 75 51.9615, 60 51.9615" fill = "green" stroke = "yellow" stroke-width = "0.6"/>
<polygon points = "82.5 38.9711, 90 51.9615, 75 51.9615" fill = "green" stroke = "yellow" stroke-width = "0.6"/>
<polygon points = "97.5 38.9711, 105 51.9615, 90 51.9615" fill = "green" stroke = "yellow" stroke-width = "0.6"/>
<polygon points = "112.5 38.9711, 120 51.9615, 105 51.9615" fill = "green" stroke = "yellow" stroke-width = "0.6"/>
<polygon points = "127.5 38.9711, 135 51.9615, 120 51.9615" fill = "green" stroke = "yellow" stroke-width = "0.6"/>
<polygon points = "142.5 38.9711, 150 51.9615, 135 51.9615" fill = "green" stroke = "yellow" stroke-width = "0.6"/>
<polygon points = "157.5 38.9711, 165 51.9615, 150 51.9615" fill = "green" stroke = "yellow" stroke-width = "0.6"/>
<polygon points = "172.5 38.9711, 180 51.9615, 165 51.9615" fill = "green" stroke = "yellow" stroke-width = "0.6"/>
<polygon points = "22.5 38.9711, 37.5 38.9711, 30 51.9615" fill = "green" stroke = "yellow" stroke-width = "0.6"/>
<polygon points = "37.5 38.9711, 52.5 38.9711, 45 51.9615" fill = "green" stroke = "yellow" stroke-width = "0.6"/>
<polygon points = "52.5 38.9711, 67.5 38.9711, 60 51.9615" fill = "green" stroke = "yellow" stroke-width = "0.6"/>
<polygon points = "67.5 38.9711, 82.5 38.9711, 75 51.9615" fill = "green" stroke = "yellow" stroke-width = "0.6"/>
<polygon points = "82.5 38.9711, 97.5 38.9711, 90 51.9615" fill = "green" stroke = "yellow" stroke-width = "0.6"/>
<polygon points = "97.5 38.9711, 112.5 38.9711, 105 51.9615" fill = "green" stroke = "yellow" stroke-width = "0.6"/>
<polygon points = "112.5 38.9711, 127.5 38.9711, 120 51.9615" fill = "green" stroke = "yellow" stroke-width = "0.6"/>
<polygon points = "127.5 38.9711, 142.5 38.9711, 135 51.9615" fill = "green" stroke = "yellow" stroke-width = "0.6"/>
<polygon points = "142.5 38.9711, 157.5 38.9711, 150 51.9615" fill = "green" stroke = "yellow" stroke-width = "0.6"/>
<polygon points = "157.5 38.9711, 172.5 38.9711, 165 51.9615" fill = "green" stroke = "yellow" stroke-width = "0.6"/>
<polygon points = "15 51.9615, 30 51.9615, 22.5 64.9519" fill = "green" stroke = "yellow" stroke-width = "0.6"/>
<polygon points = "30 51.9615, 45 51.9615, 37.5 64.9519" fill = "green" stroke = "yellow" stroke-width = "0.6"/>
<polygon points = "45 51.9615, 60 51.9615, 52.5 64.9519" fill = "green" stroke = "yellow" stroke-width = "0.6"/>
<polygon points = "60 51.9615, 75 51.9615, 67.5 64.9519" fill = "green" stroke = "yellow" stroke-width = "0.6"/>
<polygon points = "75 51.9615, 90 51.9615, 82.5 64.9519" fill = "green" stroke = "yellow" stroke-width = "0.6"/>
<polygon points = "90 51.9615, 105 51.9615, 97.5 64.9519" fill = "green" stroke = "yellow" stroke-width = "0.6"/>
<polygon points = "105 51.9615, 120 51.9615, 112.5 64.9519" fill = "green" stroke = "yellow" stroke-width = "0.6"/>
<polygon points = "120 51.9615, 135 51.9615, 127.5 64.9519" fill = "green" stroke = "yellow" stroke-width = "0.6"/>
<polygon points = "135 51.9615, 150 51.9615, 142.5 64.9519" fill = "green" stroke = "yellow" stroke-width = "0.6"/>
<polygon points = "150 51.9615, 165 51.9615, 157.5 64.9519" fill = "green" stroke = "yellow" stroke-width = "0.6"/>
<polygon points = "165 51.9615, 180 51.9615, 172.5 64.9519" fill = "green" stroke = "yellow" stroke-width = "0.6"/>
<polygon points = "15 51.9615, 22.5 64.9519, 7.5 64.9519" fill = "green" stroke = "yellow" stroke-width = "0.6"/>
<polygon points = "30 51.9615, 37.5 64.9519, 22.5 64.9519" fill = "green" stroke = "yellow" stroke-width = "0.6"/>
<polygon points = "45 51.9615, 52.5 64.9519, 37.5 64.9519" fill = "green" stroke = "yellow" stroke-width = "0.6"/>
<polygon points = "60 51.9615, 67.5 64.9519, 52.5 64.9519" fill = "green" stroke = "yellow" stroke-width = "0.6"/>
<polygon points = "75 51.9615, 82.5 64.9519, 67.5 64.9519" fill = "green" stroke = "yellow" stroke-width = "0.6"/>
<polygon points = "90 51.9615, 97.5 64.9519, 82.5 64.9519" fill = "green" stroke = "yellow" stroke-width = "0.6"/>
<polygon points = "105 51.9615, 112.5 64.9519, 97.5 64.9519" fill = "green" stroke = "yellow" stroke-width = "0.6"/>
<polygon points = "120 51.9615, 127.5 64.9519, 112.5 64.9519" fill = "green" stroke = "yellow" stroke-width = "0.6"/>
<polygon points = "135 51.9615, 142.5 64.9519, 127.5 64.9519" fill = "green" stroke = "yellow" stroke-width = "0.6"/>
<polygon points = "150 51.9615, 157.5 64.9519, 142.5 64.9519" fill = "green" stroke = "yellow" stroke-width = "0.6"/>
<polygon points = "165 51.9615, 172.5 64.9519, 157.5 64.9519" fill = "green" stroke = "yellow" stroke-width = "0.6"/>
<polygon points = "180 51.9615, 187.5 64.9519, 172.5 64.9519" fill = "green" stroke = "yellow" stroke-width = "0.6"/>
<polygon points = "22.5 64.9519, 30 77.9423, 15 77.9423" fill = "green" stroke = "yellow" stroke-width = "0.6"/>
<polygon points = "37.5 64.9519, 45 77.9423, 30 77.9423" fill = "green" stroke = "yellow" stroke-width = "0.6"/>
<polygon points = "52.5 64.9519, 60 77.9423, 45 77.9423" fill = "green" stroke = "yellow" stroke-width = "0.6"/>
<polygon points = "67.5 64.9519, 75 77.9423, 60 77.9423" fill = "green" stroke = "yellow" stroke-width = "0.6"/>
<polygon points = "82.5 64.9519, 90 77.9423, 75 77.9423" fill = "green" stroke = "yellow" stroke-width = "0.6"/>
<polygon points = "97.5 64.9519, 105 77.9423, 90 77.9423" fill = "green" stroke = "yellow" stroke-width = "0.6"/>
<polygon points = "112.5 64.9519, 120 77.9423, 105 77.9423" fill = "green" stroke = "yellow" stroke-width = "0.6"/>
<polygon points = "127.5 64.9519, 135 77.9423, 120 77.9423" fill = "green" stroke = "yellow" stroke-width = "0.6"/>
<polygon points = "142.5 64.9519, 150 77.9423, 135 77.9423" fill = "green" stroke = "yellow" stroke-width = "0.6"/>
<polygon points = "157.5 64.9519, 165 77.9423, 150 77.9423" fill = "green" stroke = "yellow" stroke-width = "0.6"/>
<polygon points = "172.5 64.9519, 180 77.9423, 165 77.9423" fill = "green" stroke = "yellow" stroke-width = "0.6"/>
<polygon points = "187.5 64.9519, 195 77.9423, 180 77.9423" fill = "green" stroke = "yellow" stroke-width = "0.6"/>
<polygon points = "7.5 64.9519, 22.5 64.9519, 15 77.9423" fill = "green" stroke = "yellow" stroke-width = "0.6"/>
<polygon points = "22.5 64.9519, 37.5 64.9519, 30 77.9423" fill = "green" stroke = "yellow" stroke-width = "0.6"/>
<polygon points = "37.5 64.9519, 52.5 64.9519, 45 77.9423" fill = "green" stroke = "yellow" stroke-width = "0.6"/>
<polygon points = "52.5 64.9519, 67.5 64.9519, 60 77.9423" fill = "green" stroke = "yellow" stroke-width = "0.6"/>
<polygon points = "67.5 64.9519, 82.5 64.9519, 75 77.9423" fill = "green" stroke = "yellow" stroke-width = "0.6"/>
<polygon points = "82.5 64.9519, 97.5 64.9519, 90 77.9423" fill = "green" stroke = "yellow" stroke-width = "0.6"/>
<polygon points = "97.5 64.9519, 112.5 64.9519, 105 77.9423" fill = "green" stroke = "yellow" stroke-width = "0.6"/>
<polygon points = "112.5 64.9519, 127.5 64.9519, 120 77.9423" fill = "green" stroke = "yellow" stroke-width = "0.6"/>
<polygon points = "127.5 64.9519, 142.5 64.9519, 135 77.9423" fill = "green" stroke = "yellow" stroke-width = "0.6"/>
<polygon points = "142.5 64.9519, 157.5 64.9519, 150 77.9423" fill = "green" stroke = "yellow" stroke-width = "0.6"/>
<polygon points = "157.5 64.9519, 172.5 64.9519, 165 77.9423" fill = "green" stroke = "yellow" stroke-width = "0.6"/>
<polygon points = "172.5 64.9519, 187.5 64.9519, 180 77.9423" fill = "green" stroke = "yellow" stroke-width = "0.6"/>
<polygon points = "15 77.9423, 30 77.9423, 22.5 90.9327" fill = "green" stroke = "yellow" stroke-width = "0.6"/>
<polygon points = "30 77.9423, 45 77.9423, 37.5 90.9327" fill = "green" stroke = "yellow" stroke-width = "0.6"/>
<polygon points = "45 77.9423, 60 77.9423, 52.5 90.9327" fill = "green" stroke = "yellow" stroke-width = "0.6"/>
<polygon points = "60 77.9423, 75 77.9423, 67.5 90.9327" fill = "green" stroke = "yellow" stroke-width = "0.6"/>
<polygon points = "75 77.9423, 90 77.9423, 82.5 90.9327" fill = "green" stroke = "yellow" stroke-width = "0.6"/>
<polygon points = "90 77.9423, 105 77.9423, 97.5 90.9327" fill = "green" stroke = "yellow" stroke-width = "0.6"/>
<polygon points = "105 77.9423, 120 77.9423, 112.5 90.9327" fill = "green" stroke = "yellow" stroke-width = "0.6"/>
<polygon points = "120 77.9423, 135 77.9423, 127.5 90.9327" fill = "green" stroke = "yellow" stroke-width = "0.6"/>
<polygon points = "135 77.9423, 150 77.9423, 142.5 90.9327" fill = "green" stroke = "yellow" stroke-width = "0.6"/>
<polygon points = "150 77.9423, 165 77.9423, 157.5 90.9327" fill = "green" stroke = "yellow" stroke-width = "0.6"/>
<polygon points = "165 77.9423, 180 77.9423, 172.5 90.9327" fill = "green" stroke = "yellow" stroke-width = "0.6"/>
<polygon points = "180 77.9423, 195 77.9423, 187.5 90.9327" fill = "green" stroke = "yellow" stroke-width = "0.6"/>
<polygon points = "15 77.9423, 22.5 90.9327, 7.5 90.9327" fill = "green" stroke = "yellow" stroke-width = "0.6"/>
<polygon points = "30 77.9423, 37.5 90.9327, 22.5 90.9327" fill = "green" stroke = "yellow" stroke-width = "0.6"/>
<polygon points = "45 77.9423, 52.5 90.9327, 37.5 90.9327" fill = "green" stroke = "yellow" stroke-width = "0.6"/>
<polygon points = "60 77.9423, 67.5 90.9327, 52.5 90.9327" fill = "green" stroke = "yellow" stroke-width = "0.6"/>
<polygon points = "75 77.9423, 82.5 90.9327, 67.5 90.9327" fill = "green" stroke = "yellow" stroke-width = "0.6"/>
<polygon points = "90 77.9423, 97.5 90.9327, 82.5 90.9327" fill = "green" stroke = "yellow" stroke-width = "0.6"/>
<polygon points = "105 77.9423, 112.5 90.9327, 97.5 90.9327" fill = "green" stroke = "yellow" stroke-width = "0.6"/>
<polygon points = "120 77.9423, 127.5 90.9327, 112.5 90.9327" fill = "green" stroke = "yellow" stroke-width = "0.6"/>
<polygon points = "135 77.9423, 142.5 90.9327, 127.5 90.9327" fill = "green" stroke = "yellow" stroke-width = "0.6"/>
<polygon points = "150 77.9423, 157.5 90.9327, 142.5 90.9327" fill = "green" stroke = "yellow" stroke-width = "0.6"/>
<polygon points = "165 77.9423, 172.5 90.9327, 157.5 90.9327" fill = "green" stroke = "yellow" stroke-width = "0.6"/>
<polygon points = "180 77.9423, 187.5 90.9327, 172.5 90.9327" fill = "green" stroke = "yellow" stroke-width = "0.6"/>
<polygon points = "22.5 90.9327, 30 103.923, 15 103.923" fill = "green" stroke = "yellow" stroke-width = "0.6"/>
<polygon points = "37.5 90.9327, 45 103.923, 30 103.923" fill = "green" stroke = "yellow" stroke-width = "0.6"/>
<polygon points = "52.5 90.9327, 60 103.923, 45 103.923" fill = "green" stroke = "yellow" stroke-width = "0.6"/>
<polygon points = "67.5 90.9327, 75 103.923, 60 103.923" fill = "green" stroke = "yellow" stroke-width = "0.6"/>
<polygon points = "82.5 90.9327, 90 103.923, 75 103.923" fill = "green" stroke = "yellow" stroke-width = "0.6"/>
<polygon points = "97.5 90.9327, 105 103.923, 90 103.923" fill = "green" stroke = "yellow" stroke-width = "0.6"/>
<polygon points = "112.5 90.9327, 120 103.923, 105 103.923" fill = "green" stroke = "yellow" stroke-width = "0.6"/>
<polygon points = "127.5 90.9327, 135 103.923, 120 103.923" fill = "green" stroke = "yellow" stroke-width = "0.6"/>
<polygon points = "142.5 90.9327, 150 103.923, 135 103.923" fill = "green" stroke = "yellow" stroke-width = "0.6"/>
<polygon points = "157.5 90.9327, 165 103.923, 150 103.923" fill = "green" stroke = "yellow" stroke-width = "0.6"/>
<polygon points = "172.5 90.9327, 180 103.923, 165 103.923" fill = "green" stroke = "yellow" stroke-width = "0.6"/>
<polygon points = "187.5 90.9327, 195 103.923, 180 103.923" fill = "green" stroke = "yellow" stroke-width = "0.6"/>
<polygon points = "7.5 90.9327, 22.5 90.9327, 15 103.923" fill = "green" stroke = "yellow" stroke-width = "0.6"/>
<polygon points = "22.5 90.9327, 37.5 90.9327, 30 103.923" fill = "green" stroke = "yellow" stroke-width = "0.6"/>
<polygon points = "37.5 90.9327, 52.5 90.9327, 45 103.923" fill = "green" stroke = "yellow" stroke-width = "0.6"/>
<polygon points = "52.5 90.9327, 67.5 90.9327, 60 103.923" fill = "green" stroke = "yellow" stroke-width = "0.6"/>
<polygon points = "67.5 90.9327, 82.5 90.9327, 75 103.923" fill = "green" stroke = "yellow" stroke-width = "0.6"/>
<polygon points = "82.5 90.9327, 97.5 90.9327, 90 103.923" fill = "green" stroke = "yellow" stroke-width = "0.6"/>
<polygon points = "97.5 90.9327, 112.5 90.9327, 105 103.923" fill = "green" stroke = "yellow" stroke-width = "0.6"/>
<polygon points = "112.5 90.9327, 127.5 90.9327, 120 103.923" fill = "green" stroke = "yellow" stroke-width = "0.6"/>
<polygon points = "127.5 90.9327, 142.5 90.9327, 135 103.923" fill = "green" stroke = "yellow" stroke-width = "0.6"/>
<polygon points = "142.5 90.9327, 157.5 90.9327, 150 103.923" fill = "green" stroke = "yellow" stroke-width = "0.6"/>
<polygon points = "157.5 90.9327, 172.5 90.9327, 165 103.923" fill = "green" stroke = "yellow" stroke-width = "0.6"/>
<polygon points = "172.5 90.9327, 187.5 90.9327, 180 103.923" fill = "green" stroke = "yellow" stroke-width = "0.6"/>
<polygon points = "15 103.923, 30 103.923, 22.5 116.913" fill = "green" stroke = "yellow" stroke-width = "0.6"/>
<polygon points = "30 103.923, 45 103.923, 37.5 116.913" fill = "green" stroke = "yellow" stroke-width = "0.6"/>
<polygon points = "45 103.923, 60 103.923, 52.5 116.913" fill = "green" stroke = "yellow" stroke-width = "0.6"/>
<polygon points = "60 103.923, 75 103.923, 67.5 116.913" fill = "green" stroke = "yellow" stroke-width = "0.6"/>
<polygon points = "75 103.923, 90 103.923, 82.5 116.913" fill = "green" stroke = "yellow" stroke-width = "0.6"/>
<polygon points = "90 103.923, 105 103.923, 97.5 116.913" fill = "green" stroke = "yellow" stroke-width = "0.6"/>
<polygon points = "105 103.923, 120 103.923, 112.5 116.913" fill = "green" stroke = "yellow" stroke-width = "0.6"/>
<polygon points = "120 103.923, 135 103.923, 127.5 116.913" fill = "green" stroke = "yellow" stroke-width = "0.6"/>
<polygon points = "135 103.923, 150 103.923, 142.5 116.913" fill = "green" stroke = "yellow" stroke-width = "0.6"/>
<polygon points = "150 103.923, 165 103.923, 157.5 116.913" fill = "green" stroke = "yellow" stroke-width = "0.6"/>
<polygon points = "165 103.923, 180 103.923, 172.5 116.913" fill = "green" stroke = "yellow" stroke-width = "0.6"/>
<polygon points = "180 103.923, 195 103.923, 187.5 116.913" fill = "green" stroke = "yellow" stroke-width = "0.6"/>
<polygon points = "15 103.923, 22.5 116.913, 7.5 116.913" fill = "green" stroke = "yellow" stroke-width = "0.6"/>
<polygon points = "30 103.923, 37.5 116.913, 22.5 116.913" fill = "green" stroke = "yellow" stroke-width = "0.6"/>
<polygon points = "45 103.923, 52.5 116.913, 37.5 116.913" fill = "green" stroke = "yellow" stroke-width = "0.6"/>
<polygon points = "60 103.923, 67.5 116.913, 52.5 116.913" fill = "green" stroke = "yellow" stroke-width = "0.6"/>
<polygon points = "75 103.923, 82.5 116.913, 67.5 116.913" fill = "green" stroke = "yellow" stroke-width = "0.6"/>
<polygon points = "90 103.923, 97.5 116.913, 82.5 116.913" fill = "green" stroke = "yellow" stroke-width = "0.6"/>
<polygon points = "105 103.923, 112.5 116.913, 97.5 116.913" fill = "green" stroke = "yellow" stroke-width = "0.6"/>
<polygon points = "120 103.923, 127.5 116.913, 112.5 116.913" fill = "green" stroke = "yellow" stroke-width = "0.6"/>
<polygon points = "135 103.923, 142.5 116.913, 127.5 116.913" fill = "green" stroke = "yellow" stroke-width = "0.6"/>
<polygon points = "150 103.923, 157.5 116.913, 142.5 116.913" fill = "green" stroke = "yellow" stroke-width = "0.6"/>
<polygon points = "165 103.923, 172.5 116.913, 157.5 116.913" fill = "green" stroke = "yellow" stroke-width = "0.6"/>
<polygon points = "180 103.923, 187.5 116.913, 172.5 116.913" fill = "green" stroke = "yellow" stroke-width = "0.6"/>
<polygon points = "22.5 116.913, 30 129.904, 15 129.904" fill = "green" stroke = "yellow" stroke-width = "0.6"/>
<polygon points = "37.5 116.913, 45 129.904, 30 129.904" fill = "green" stroke = "yellow" stroke-width = "0.6"/>
<polygon points = "52.5 116.913, 60 129.904, 45 129.904" fill = "green" stroke = "yellow" stroke-width = "0.6"/>
<polygon points = "67.5 116.913, 75 129.904, 60 129.904" fill = "green" stroke = "yellow" stroke-width = "0.6"/>
<polygon points = "82.5 116.913, 90 129.904, 75 129.904" fill = "green" stroke = "yellow" stroke-width = "0.6"/>
<polygon points = "97.5 116.913, 105 129.904, 90 129.904" fill = "green" stroke = "yellow" stroke-width = "0.6"/>
<polygon points = "112.5 116.913, 120 129.904, 105 129.904" fill = "green" stroke = "yellow" stroke-width = "0.6"/>
<polygon points = "127.5 116.913, 135 129.904, 120 129.904" fill = "green" stroke = "yellow" stroke-width = "0.6"/>
<polygon points = "142.5 116.913, 150 129.904, 135 129.904" fill = "green" stroke = "yellow" stroke-width = "0.6"/>
<polygon points = "157.5 116.913, 165 129.904, 150 129.904" fill = "green" stroke = "yellow" stroke-width = "0.6"/>
<polygon points = "172.5 116.913, 180 129.904, 165 129.904" fill = "green" stroke = "yellow" stroke-width = "0.6"/>
<polygon points = "187.5 116.913, 195 129.904, 180 129.904" fill = "green" stroke = "yellow" stroke-width = "0.6"/>
<polygon points = "7.5 116.913, 22.5 116.913, 15 129.904" fill = "green" stroke = "yellow" stroke-width = "0.6"/>
<polygon points = "22.5 116.913, 37.5 116.913, 30 129.904" fill = "green" stroke = "yellow" stroke-width = "0.6"/>
<polygon points = "37.5 116.913, 52.5 116.913, 45 129.904" fill = "green" stroke = "yellow" stroke-width = "0.6"/>
<polygon points = "52.5 116.913, 67.5 116.913, 60 129.904" fill = "green" stroke = "yellow" stroke-width = "0.6"/>
<polygon points = "67.5 116.913, 82.5 116.913, 75 129.904" fill = "green" stroke = "yellow" stroke-width = "0.6"/>
<polygon points = "82.5 116.913, 97.5 116.913, 90 129.904" fill = "green" stroke = "yellow" stroke-width = "0.6"/>
<polygon points = "97.5 116.913, 112.5 116.913, 105 129.904" fill = "green" stroke = "yellow" stroke-width = "0.6"/>
<polygon points = "112.5 116.913, 127.5 116.913, 120 129.904" fill = "green" stroke = "yellow" stroke-width = "0.6"/>
<polygon points = "127.5 116.913, 142.5 116.913, 135 129.904" fill = "green" stroke = "yellow" stroke-width = "0.6"/>
<polygon points = "142.5 116.913, 157.5 116.913, 150 129.904" fill = "green" stroke = "yellow" stroke-width = "0.6"/>
<polygon points = "157.5 116.913, 172.5 116.913, 165 129.904" fill = "green" stroke = "yellow" stroke-width = "0.6"/>
<polygon points = "172.5 116.913, 187.5 116.913, 180 129.904" fill = "green" stroke = "yellow" stroke-width = "0.6"/>
<polygon points = "15 129.904, 30 129.904, 22.5 142.894" fill = "green" stroke = "yellow" stroke-width = "0.6"/>
<polygon points = "30 129.904, 45 129.904, 37.5 142.894" fill = "green" stroke = "yellow" stroke-width = "0.6"/>
<polygon points = "45 129.904, 60 129.904, 52.5 142.894" fill = "green" stroke = "yellow" stroke-width = "0.6"/>
<polygon points = "60 129.904, 75 129.904, 67.5 142.894" fill = "green" stroke = "yellow" stroke-width = "0.6"/>
<polygon points = "75 129.904, 90 129.904, 82.5 142.894" fill = "green" stroke = "yellow" stroke-width = "0.6"/>
<polygon points = "90 129.904, 105 129.904, 97.5 142.894" fill = "green" stroke = "yellow" stroke-width = "0.6"/>
<polygon points = "105 129.904, 120 129.904, 112.5 142.894" fill = "green" stroke = "yellow" stroke-width = "0.6"/>
<polygon points = "120 129.904, 135 129.904, 127.5 142.894" fill = "green" stroke = "yellow" stroke-width = "0.6"/>
<polygon points = "135 129.904, 150 129.904, 142.5 142.894" fill = "green" stroke = "yellow" stroke-width = "0.6"/>
<polygon points = "150 129.904, 165 129.904, 157.5 142.894" fill = "green" stroke = "yellow" stroke-width = "0.6"/>
<polygon points = "165 129.904, 180 129.904, 172.5 142.894" fill = "green" stroke = "yellow" stroke-width = "0.6"/>
<polygon points = "180 129.904, 195 129.904, 187.5 142.894" fill = "green" stroke = "yellow" stroke-width = "0.6"/>
<polygon points = "30 129.904, 37.5 142.894, 22.5 142.894" fill = "green" stroke = "yellow" stroke-width = "0.6"/>
<polygon points = "45 129.904, 52.5 142.894, 37.5 142.894" fill = "green" stroke = "yellow" stroke-width = "0.6"/>
<polygon points = "60 129.904, 67.5 142.894, 52.5 142.894" fill = "green" stroke = "yellow" stroke-width = "0.6"/>
<polygon points = "75 129.904, 82.5 142.894, 67.5 142.894" fill = "green" stroke = "yellow" stroke-width = "0.6"/>
<polygon points = "90 129.904, 97.5 142.894, 82.5 142.894" fill = "green" stroke = "yellow" stroke-width = "0.6"/>
<polygon points = "105 129.904, 112.5 142.894, 97.5 142.894" fill = "green" stroke = "yellow" stroke-width = "0.6"/>
<polygon points = "120 129.904, 127.5 142.894, 112.5 142.894" fill = "green" stroke = "yellow" stroke-width = "0.6"/>
<polygon points = "135 129.904, 142.5 142.894, 127.5 142.894" fill = "green" stroke = "yellow" stroke-width = "0.6"/>
<polygon points = "150 129.904, 157.5 142.894, 142.5 142.894" fill = "green" stroke = "yellow" stroke-width = "0.6"/>
<polygon points = "165 129.904, 172.5 142.894, 157.5 142.894" fill = "green" stroke = "yellow" stroke-width = "0.6"/>
<polygon points = "180 129.904, 187.5 142.894, 172.5 142.894" fill = "green" stroke = "yellow" stroke-width = "0.6"/>
<polygon points = "37.5 142.894, 45 155.885, 30 155.885" fill = "green" stroke = "yellow" stroke-width = "0.6"/>
<polygon points = "52.5 142.894, 60 155.885, 45 155.885" fill = "green" stroke = "yellow" stroke-width = "0.6"/>
<polygon points = "67.5 142.894, 75 155.885, 60 155.885" fill = "green" stroke = "yellow" stroke-width = "0.6"/>
<polygon points = "82.5 142.894, 90 155.885, 75 155.885" fill = "green" stroke = "yellow" stroke-width = "0.6"/>
<polygon points = "97.5 142.894, 105 155.885, 90 155.885" fill = "green" stroke = "yellow" stroke-width = "0.6"/>
<polygon points = "112.5 142.894, 120 155.885, 105 155.885" fill = "green" stroke = "yellow" stroke-width = "0.6"/>
<polygon points = "127.5 142.894, 135 155.885, 120 155.885" fill = "green" stroke = "yellow" stroke-width = "0.6"/>
<polygon points = "142.5 142.894, 150 155.885, 135 155.885" fill = "green" stroke = "yellow" stroke-width = "0.6"/>
<polygon points = "157.5 142.894, 165 155.885, 150 155.885" fill = "green" stroke = "yellow" stroke-width = "0.6"/>
<polygon points = "172.5 142.894, 180 155.885, 165 155.885" fill = "green" stroke = "yellow" stroke-width = "0.6"/>
<polygon points = "22.5 142.894, 37.5 142.894, 30 155.885" fill = "green" stroke = "yellow" stroke-width = "0.6"/>
<polygon points = "37.5 142.894, 52.5 142.894, 45 155.885" fill = "green" stroke = "yellow" stroke-width = "0.6"/>
<polygon points = "52.5 142.894, 67.5 142.894, 60 155.885" fill = "green" stroke = "yellow" stroke-width = "0.6"/>
<polygon points = "67.5 142.894, 82.5 142.894, 75 155.885" fill = "green" stroke = "yellow" stroke-width = "0.6"/>
<polygon points = "82.5 142.894, 97.5 142.894, 90 155.885" fill = "green" stroke = "yellow" stroke-width = "0.6"/>
<polygon points = "97.5 142.894, 112.5 142.894, 105 155.885" fill = "green" stroke = "yellow" stroke-width = "0.6"/>
<polygon points = "112.5 142.894, 127.5 142.894, 120 155.885" fill = "green" stroke = "yellow" stroke-width = "0.6"/>
<polygon points = "127.5 142.894, 142.5 142.894, 135 155.885" fill = "green" stroke = "yellow" stroke-width = "0.6"/>
<polygon points = "142.5 142.894, 157.5 142.894, 150 155.885" fill = "green" stroke = "yellow" stroke-width = "0.6"/>
<polygon points = "157.5 142.894, 172.5 142.894, 165 155.885" fill = "green" stroke = "yellow" stroke-width = "0.6"/>
<polygon points = "172.5 142.894, 187.5 142.894, 180 155.885" fill = "green" stroke = "yellow" stroke-width = "0.6"/>
<polygon points = "30 155.885, 45 155.885, 37.5 168.875" fill = "green" stroke = "yellow" stroke-width = "0.6"/>
<polygon points = "45 155.885, 60 155.885, 52.5 168.875" fill = "green" stroke = "yellow" stroke-width = "0.6"/>
<polygon points = "60 155.885, 75 155.885, 67.5 168.875" fill = "green" stroke = "yellow" stroke-width = "0.6"/>
<polygon points = "75 155.885, 90 155.885, 82.5 168.875" fill = "green" stroke = "yellow" stroke-width = "0.6"/>
<polygon points = "90 155.885, 105 155.885, 97.5 168.875" fill = "green" stroke = "yellow" stroke-width = "0.6"/>
<polygon points = "105 155.885, 120 155.885, 112.5 168.875" fill = "green" stroke = "yellow" stroke-width = "0.6"/>
<polygon points = "120 155.885, 135 155.885, 127.5 168.875" fill = "green" stroke = "yellow" stroke-width = "0.6"/>
<polygon points = "135 155.885, 150 155.885, 142.5 168.875" fill = "green" stroke = "yellow" stroke-width = "0.6"/>
<polygon points = "150 155.885, 165 155.885, 157.5 168.875" fill = "green" stroke = "yellow" stroke-width = "0.6"/>
<polygon points = "45 155.885, 52.5 168.875, 37.5 168.875" fill = "green" stroke = "yellow" stroke-width = "0.6"/>
<polygon points = "60 155.885, 67.5 168.875, 52.5 168.875" fill = "green" stroke = "yellow" stroke-width = "0.6"/>
<polygon points = "75 155.885, 82.5 168.875, 67.5 168.875" fill = "green" stroke = "yellow" stroke-width = "0.6"/>
<polygon points = "90 155.885, 97.5 168.875, 82.5 168.875" fill = "green" stroke = "yellow" stroke-width = "0.6"/>
<polygon points = "105 155.885, 112.5 168.875, 97.5 168.875" fill = "green" stroke = "yellow" stroke-width = "0.6"/>
<polygon points = "120 155.885, 127.5 168.875, 112.5 168.875" fill = "green" stroke = "yellow" stroke-width = "0.6"/>
<polygon points = "135 155.885, 142.5 168.875, 127.5 168.875" fill = "green" stroke = "yellow" stroke-width = "0.6"/>
<polygon points = "150 155.885, 157.5 168.875, 142.5 168.875" fill = "green" stroke = "yellow" stroke-width = "0.6"/>
<polygon points = "52.5 168.875, 60 181.865, 45 181.865" fill = "green" stroke = "yellow" stroke-width = "0.6"/>
<polygon points = "67.5 168.875, 75 181.865, 60 181.865" fill = "green" stroke = "yellow" stroke-width = "0.6"/>
<polygon points = "82.5 168.875, 90 181.865, 75 181.865" fill = "green" stroke = "yellow" stroke-width = "0.6"/>
<polygon points = "97.5 168.875, 105 181.865, 90 181.865" fill = "green" stroke = "yellow" stroke-width = "0.6"/>
<polygon points = "112.5 168.875, 120 181.865, 105 181.865" fill = "green" stroke = "yellow" stroke-width = "0.6"/>
<polygon points = "127.5 168.875, 135 181.865, 120 181.865" fill = "green" stroke = "yellow" stroke-width = "0.6"/>
<polygon points = "142.5 168.875, 150 181.865, 135 181.865" fill = "green" stroke = "yellow" stroke-width = "0.6"/>
<polygon points = "37.5 168.875, 52.5 168.875, 45 181.865" fill = "green" stroke = "yellow" stroke-width = "0.6"/>
<polygon points = "52.5 168.875, 67.5 168.875, 60 181.865" fill = "green" stroke = "yellow" stroke-width = "0.6"/>
<polygon points = "67.5 168.875, 82.5 168.875, 75 181.865" fill = "green" stroke = "yellow" stroke-width = "0.6"/>
<polygon points = "82.5 168.875, 97.5 168.875, 90 181.865" fill = "green" stroke = "yellow" stroke-width = "0.6"/>
<polygon points = "97.5 168.875, 112.5 168.875, 105 181.865" fill = "green" stroke = "yellow" stroke-width = "0.6"/>
<polygon points = "112.5 168.875, 127.5 168.875, 120 181.865" fill = "green" stroke = "yellow" stroke-width = "0.6"/>
<polygon points = "127.5 168.875, 142.5 168.875, 135 181.865" fill = "green" stroke = "yellow" stroke-width = "0.6"/>
<polygon points = "142.5 168.875, 157.5 168.875, 150 181.865" fill = "green" stroke = "yellow" stroke-width = "0.6"/>
<polygon points = "75 181.865, 90 181.865, 82.5 194.856" fill = "green" stroke = "yellow" stroke-width = "0.6"/>
<polygon points = "90 181.865, 105 181.865, 97.5 194.856" fill = "green" stroke = "yellow" stroke-width = "0.6"/>
<polygon points = "105 181.865, 120 181.865, 112.5 194.856" fill = "green" stroke = "yellow" stroke-width = "0.6"/>
<polygon points = "120 181.865, 135 181.865, 127.5 194.856" fill = "green" stroke = "yellow" stroke-width = "0.6"/>
<polygon points = "90 181.865, 97.5 194.856, 82.5 194.856" fill = "green" stroke = "yellow" stroke-width = "0.6"/>
<polygon points = "105 181.865, 112.5 194.856, 97.5 194.856" fill = "green" stroke = "yellow" stroke-width = "0.6"/>
<polygon points = "120 181.865, 127.5 194.856, 112.5 194.856" fill = "green" stroke = "yellow" stroke-width = "0.6"/>
</svg>
