<svg version="1.1"
baseProfile="full"
xmlns="http://www.w3.org/2000/svg">
<rect width="100%" height="100%" fill="white" />
<rect width="100" height="300" fill = "red"/>
<rect x = "0" y = "0" width="10" height="15" fill="green" stroke = "yellow" stroke-width="0.6" />
<rect x = "10" y = "0" width="10" height="15" fill="green" stroke = "yellow" stroke-width="0.6" />
<rect x = "20" y = "0" width="10" height="15" fill="green" stroke = "yellow" stroke-width="0.6" />
<rect x = "30" y = "0" width="10" height="15" fill="green" stroke = "yellow" stroke-width="0.6" />
<rect x = "40" y = "0" width="10" height="15" fill="green" stroke = "yellow" stroke-width="0.6" />
<rect x = "50" y = "0" width="10" height="15" fill="green" stroke = "yellow" stroke-width="0.6" />
<rect x = "60" y = "0" width="10" height="15" fill="green" stroke = "yellow" stroke-width="0.6" />
<rect x = "70" y = "0" width="10" height="15" fill="green" stroke = "yellow" stroke-width="0.6" />
<rect x = "80" y = "0" width="10" height="15" fill="green" stroke = "yellow" stroke-width="0.6" />
<rect x = "90" y = "0" width="10" height="15" fill="green" stroke = "yellow" stroke-width="0.6" />
<rect x = "0" y = "15" width="10" height="15" fill="green" stroke = "yellow" stroke-width="0.6" />
<rect x = "10" y = "15" width="10" height="15" fill="green" stroke = "yellow" stroke-width="0.6" />
<rect x = "20" y = "15" width="10" height="15" fill="green" stroke = "yellow" stroke-width="0.6" />
<rect x = "30" y = "15" width="10" height="15" fill="green" stroke = "yellow" stroke-width="0.6" />
<rect x = "40" y = "15" width="10" height="15" fill="green" stroke = "yellow" stroke-width="0.6" />
<rect x = "50" y = "15" width="10" height="15" fill="green" stroke = "yellow" stroke-width="0.6" />
<rect x = "60" y = "15" width="10" height="15" fill="green" stroke = "yellow" stroke-width="0.6" />
<rect x = "70" y = "15" width="10" height="15" fill="green" stroke = "yellow" stroke-width="0.6" />
<rect x = "80" y = "15" width="10" height="15" fill="green" stroke = "yellow" stroke-width="0.6" />
<rect x = "90" y = "15" width="10" height="15" fill="green" stroke = "yellow" stroke-width="0.6" />
<rect x = "0" y = "30" width="10" height="15" fill="green" stroke = "yellow" stroke-width="0.6" />
<rect x = "10" y = "30" width="10" height="15" fill="green" stroke = "yellow" stroke-width="0.6" />
<rect x = "20" y = "30" width="10" height="15" fill="green" stroke = "yellow" stroke-width="0.6" />
<rect x = "30" y = "30" width="10" height="15" fill="green" stroke = "yellow" stroke-width="0.6" />
<rect x = "40" y = "30" width="10" height="15" fill="green" stroke = "yellow" stroke-width="0.6" />
<rect x = "50" y = "30" width="10" height="15" fill="green" stroke = "yellow" stroke-width="0.6" />
<rect x = "60" y = "30" width="10" height="15" fill="green" stroke = "yellow" stroke-width="0.6" />
<rect x = "70" y = "30" width="10" height="15" fill="green" stroke = "yellow" stroke-width="0.6" />
<rect x = "80" y = "30" width="10" height="15" fill="green" stroke = "yellow" stroke-width="0.6" />
<rect x = "90" y = "30" width="10" height="15" fill="green" stroke = "yellow" stroke-width="0.6" />
<rect x = "0" y = "45" width="10" height="15" fill="green" stroke = "yellow" stroke-width="0.6" />
<rect x = "10" y = "45" width="10" height="15" fill="green" stroke = "yellow" stroke-width="0.6" />
<rect x = "20" y = "45" width="10" height="15" fill="green" stroke = "yellow" stroke-width="0.6" />
<rect x = "30" y = "45" width="10" height="15" fill="green" stroke = "yellow" stroke-width="0.6" />
<rect x = "40" y = "45" width="10" height="15" fill="green" stroke = "yellow" stroke-width="0.6" />
<rect x = "50" y = "45" width="10" height="15" fill="green" stroke = "yellow" stroke-width="0.6" />
<rect x = "60" y = "45" width="10" height="15" fill="green" stroke = "yellow" stroke-width="0.6" />
<rect x = "70" y = "45" width="10" height="15" fill="green" stroke = "yellow" stroke-width="0.6" />
<rect x = "80" y = "45" width="10" height="15" fill="green" stroke = "yellow" stroke-width="0.6" />
<rect x = "90" y = "45" width="10" height="15" fill="green" stroke = "yellow" stroke-width="0.6" />
<rect x = "0" y = "60" width="10" height="15" fill="green" stroke = "yellow" stroke-width="0.6" />
<rect x = "10" y = "60" width="10" height="15" fill="green" stroke = "yellow" stroke-width="0.6" />
<rect x = "20" y = "60" width="10" height="15" fill="green" stroke = "yellow" stroke-width="0.6" />
<rect x = "30" y = "60" width="10" height="15" fill="green" stroke = "yellow" stroke-width="0.6" />
<rect x = "40" y = "60" width="10" height="15" fill="green" stroke = "yellow" stroke-width="0.6" />
<rect x = "50" y = "60" width="10" height="15" fill="green" stroke = "yellow" stroke-width="0.6" />
<rect x = "60" y = "60" width="10" height="15" fill="green" stroke = "yellow" stroke-width="0.6" />
<rect x = "70" y = "60" width="10" height="15" fill="green" stroke = "yellow" stroke-width="0.6" />
<rect x = "80" y = "60" width="10" height="15" fill="green" stroke = "yellow" stroke-width="0.6" />
<rect x = "90" y = "60" width="10" height="15" fill="green" stroke = "yellow" stroke-width="0.6" />
<rect x = "0" y = "75" width="10" height="15" fill="green" stroke = "yellow" stroke-width="0.6" />
<rect x = "10" y = "75" width="10" height="15" fill="green" stroke = "yellow" stroke-width="0.6" />
<rect x = "20" y = "75" width="10" height="15" fill="green" stroke = "yellow" stroke-width="0.6" />
<rect x = "30" y = "75" width="10" height="15" fill="green" stroke = "yellow" stroke-width="0.6" />
<rect x = "40" y = "75" width="10" height="15" fill="green" stroke = "yellow" stroke-width="0.6" />
<rect x = "50" y = "75" width="10" height="15" fill="green" stroke = "yellow" stroke-width="0.6" />
<rect x = "60" y = "75" width="10" height="15" fill="green" stroke = "yellow" stroke-width="0.6" />
<rect x = "70" y = "75" width="10" height="15" fill="green" stroke = "yellow" stroke-width="0.6" />
<rect x = "80" y = "75" width="10" height="15" fill="green" stroke = "yellow" stroke-width="0.6" />
<rect x = "90" y = "75" width="10" height="15" fill="green" stroke = "yellow" stroke-width="0.6" />
<rect x = "0" y = "90" width="10" height="15" fill="green" stroke = "yellow" stroke-width="0.6" />
<rect x = "10" y = "90" width="10" height="15" fill="green" stroke = "yellow" stroke-width="0.6" />
<rect x = "20" y = "90" width="10" height="15" fill="green" stroke = "yellow" stroke-width="0.6" />
<rect x = "30" y = "90" width="10" height="15" fill="green" stroke = "yellow" stroke-width="0.6" />
<rect x = "40" y = "90" width="10" height="15" fill="green" stroke = "yellow" stroke-width="0.6" />
<rect x = "50" y = "90" width="10" height="15" fill="green" stroke = "yellow" stroke-width="0.6" />
<rect x = "60" y = "90" width="10" height="15" fill="green" stroke = "yellow" stroke-width="0.6" />
<rect x = "70" y = "90" width="10" height="15" fill="green" stroke = "yellow" stroke-width="0.6" />
<rect x = "80" y = "90" width="10" height="15" fill="green" stroke = "yellow" stroke-width="0.6" />
<rect x = "90" y = "90" width="10" height="15" fill="green" stroke = "yellow" stroke-width="0.6" />
<rect x = "0" y = "105" width="10" height="15" fill="green" stroke = "yellow" stroke-width="0.6" />
<rect x = "10" y = "105" width="10" height="15" fill="green" stroke = "yellow" stroke-width="0.6" />
<rect x = "20" y = "105" width="10" height="15" fill="green" stroke = "yellow" stroke-width="0.6" />
<rect x = "30" y = "105" width="10" height="15" fill="green" stroke = "yellow" stroke-width="0.6" />
<rect x = "40" y = "105" width="10" height="15" fill="green" stroke = "yellow" stroke-width="0.6" />
<rect x = "50" y = "105" width="10" height="15" fill="green" stroke = "yellow" stroke-width="0.6" />
<rect x = "60" y = "105" width="10" height="15" fill="green" stroke = "yellow" stroke-width="0.6" />
<rect x = "70" y = "105" width="10" height="15" fill="green" stroke = "yellow" stroke-width="0.6" />
<rect x = "80" y = "105" width="10" height="15" fill="green" stroke = "yellow" stroke-width="0.6" />
<rect x = "90" y = "105" width="10" height="15" fill="green" stroke = "yellow" stroke-width="0.6" />
<rect x = "0" y = "120" width="10" height="15" fill="green" stroke = "yellow" stroke-width="0.6" />
<rect x = "10" y = "120" width="10" height="15" fill="green" stroke = "yellow" stroke-width="0.6" />
<rect x = "20" y = "120" width="10" height="15" fill="green" stroke = "yellow" stroke-width="0.6" />
<rect x = "30" y = "120" width="10" height="15" fill="green" stroke = "yellow" stroke-width="0.6" />
<rect x = "40" y = "120" width="10" height="15" fill="green" stroke = "yellow" stroke-width="0.6" />
<rect x = "50" y = "120" width="10" height="15" fill="green" stroke = "yellow" stroke-width="0.6" />
<rect x = "60" y = "120" width="10" height="15" fill="green" stroke = "yellow" stroke-width="0.6" />
<rect x = "70" y = "120" width="10" height="15" fill="green" stroke = "yellow" stroke-width="0.6" />
<rect x = "80" y = "120" width="10" height="15" fill="green" stroke = "yellow" stroke-width="0.6" />
<rect x = "90" y = "120" width="10" height="15" fill="green" stroke = "yellow" stroke-width="0.6" />
<rect x = "0" y = "135" width="10" height="15" fill="green" stroke = "yellow" stroke-width="0.6" />
<rect x = "10" y = "135" width="10" height="15" fill="green" stroke = "yellow" stroke-width="0.6" />
<rect x = "20" y = "135" width="10" height="15" fill="green" stroke = "yellow" stroke-width="0.6" />
<rect x = "30" y = "135" width="10" height="15" fill="green" stroke = "yellow" stroke-width="0.6" />
<rect x = "40" y = "135" width="10" height="15" fill="green" stroke = "yellow" stroke-width="0.6" />
<rect x = "50" y = "135" width="10" height="15" fill="green" stroke = "yellow" stroke-width="0.6" />
<rect x = "60" y = "135" width="10" height="15" fill="green" stroke = "yellow" stroke-width="0.6" />
<rect x = "70" y = "135" width="10" height="15" fill="green" stroke = "yellow" stroke-width="0.6" />
<rect x = "80" y = "135" width="10" height="15" fill="green" stroke = "yellow" stroke-width="0.6" />
<rect x = "90" y = "135" width="10" height="15" fill="green" stroke = "yellow" stroke-width="0.6" />
<rect x = "0" y = "150" width="10" height="15" fill="green" stroke = "yellow" stroke-width="0.6" />
<rect x = "10" y = "150" width="10" height="15" fill="green" stroke = "yellow" stroke-width="0.6" />
<rect x = "20" y = "150" width="10" height="15" fill="green" stroke = "yellow" stroke-width="0.6" />
<rect x = "30" y = "150" width="10" height="15" fill="green" stroke = "yellow" stroke-width="0.6" />
<rect x = "40" y = "150" width="10" height="15" fill="green" stroke = "yellow" stroke-width="0.6" />
<rect x = "50" y = "150" width="10" height="15" fill="green" stroke = "yellow" stroke-width="0.6" />
<rect x = "60" y = "150" width="10" height="15" fill="green" stroke = "yellow" stroke-width="0.6" />
<rect x = "70" y = "150" width="10" height="15" fill="green" stroke = "yellow" stroke-width="0.6" />
<rect x = "80" y = "150" width="10" height="15" fill="green" stroke = "yellow" stroke-width="0.6" />
<rect x = "90" y = "150" width="10" height="15" fill="green" stroke = "yellow" stroke-width="0.6" />
<rect x = "0" y = "165" width="10" height="15" fill="green" stroke = "yellow" stroke-width="0.6" />
<rect x = "10" y = "165" width="10" height="15" fill="green" stroke = "yellow" stroke-width="0.6" />
<rect x = "20" y = "165" width="10" height="15" fill="green" stroke = "yellow" stroke-width="0.6" />
<rect x = "30" y = "165" width="10" height="15" fill="green" stroke = "yellow" stroke-width="0.6" />
<rect x = "40" y = "165" width="10" height="15" fill="green" stroke = "yellow" stroke-width="0.6" />
<rect x = "50" y = "165" width="10" height="15" fill="green" stroke = "yellow" stroke-width="0.6" />
<rect x = "60" y = "165" width="10" height="15" fill="green" stroke = "yellow" stroke-width="0.6" />
<rect x = "70" y = "165" width="10" height="15" fill="green" stroke = "yellow" stroke-width="0.6" />
<rect x = "80" y = "165" width="10" height="15" fill="green" stroke = "yellow" stroke-width="0.6" />
<rect x = "90" y = "165" width="10" height="15" fill="green" stroke = "yellow" stroke-width="0.6" />
<rect x = "0" y = "180" width="10" height="15" fill="green" stroke = "yellow" stroke-width="0.6" />
<rect x = "10" y = "180" width="10" height="15" fill="green" stroke = "yellow" stroke-width="0.6" />
<rect x = "20" y = "180" width="10" height="15" fill="green" stroke = "yellow" stroke-width="0.6" />
<rect x = "30" y = "180" width="10" height="15" fill="green" stroke = "yellow" stroke-width="0.6" />
<rect x = "40" y = "180" width="10" height="15" fill="green" stroke = "yellow" stroke-width="0.6" />
<rect x = "50" y = "180" width="10" height="15" fill="green" stroke = "yellow" stroke-width="0.6" />
<rect x = "60" y = "180" width="10" height="15" fill="green" stroke = "yellow" stroke-width="0.6" />
<rect x = "70" y = "180" width="10" height="15" fill="green" stroke = "yellow" stroke-width="0.6" />
<rect x = "80" y = "180" width="10" height="15" fill="green" stroke = "yellow" stroke-width="0.6" />
<rect x = "90" y = "180" width="10" height="15" fill="green" stroke = "yellow" stroke-width="0.6" />
<rect x = "0" y = "195" width="10" height="15" fill="green" stroke = "yellow" stroke-width="0.6" />
<rect x = "10" y = "195" width="10" height="15" fill="green" stroke = "yellow" stroke-width="0.6" />
<rect x = "20" y = "195" width="10" height="15" fill="green" stroke = "yellow" stroke-width="0.6" />
<rect x = "30" y = "195" width="10" height="15" fill="green" stroke = "yellow" stroke-width="0.6" />
<rect x = "40" y = "195" width="10" height="15" fill="green" stroke = "yellow" stroke-width="0.6" />
<rect x = "50" y = "195" width="10" height="15" fill="green" stroke = "yellow" stroke-width="0.6" />
<rect x = "60" y = "195" width="10" height="15" fill="green" stroke = "yellow" stroke-width="0.6" />
<rect x = "70" y = "195" width="10" height="15" fill="green" stroke = "yellow" stroke-width="0.6" />
<rect x = "80" y = "195" width="10" height="15" fill="green" stroke = "yellow" stroke-width="0.6" />
<rect x = "90" y = "195" width="10" height="15" fill="green" stroke = "yellow" stroke-width="0.6" />
<rect x = "0" y = "210" width="10" height="15" fill="green" stroke = "yellow" stroke-width="0.6" />
<rect x = "10" y = "210" width="10" height="15" fill="green" stroke = "yellow" stroke-width="0.6" />
<rect x = "20" y = "210" width="10" height="15" fill="green" stroke = "yellow" stroke-width="0.6" />
<rect x = "30" y = "210" width="10" height="15" fill="green" stroke = "yellow" stroke-width="0.6" />
<rect x = "40" y = "210" width="10" height="15" fill="green" stroke = "yellow" stroke-width="0.6" />
<rect x = "50" y = "210" width="10" height="15" fill="green" stroke = "yellow" stroke-width="0.6" />
<rect x = "60" y = "210" width="10" height="15" fill="green" stroke = "yellow" stroke-width="0.6" />
<rect x = "70" y = "210" width="10" height="15" fill="green" stroke = "yellow" stroke-width="0.6" />
<rect x = "80" y = "210" width="10" height="15" fill="green" stroke = "yellow" stroke-width="0.6" />
<rect x = "90" y = "210" width="10" height="15" fill="green" stroke = "yellow" stroke-width="0.6" />
<rect x = "0" y = "225" width="10" height="15" fill="green" stroke = "yellow" stroke-width="0.6" />
<rect x = "10" y = "225" width="10" height="15" fill="green" stroke = "yellow" stroke-width="0.6" />
<rect x = "20" y = "225" width="10" height="15" fill="green" stroke = "yellow" stroke-width="0.6" />
<rect x = "30" y = "225" width="10" height="15" fill="green" stroke = "yellow" stroke-width="0.6" />
<rect x = "40" y = "225" width="10" height="15" fill="green" stroke = "yellow" stroke-width="0.6" />
<rect x = "50" y = "225" width="10" height="15" fill="green" stroke = "yellow" stroke-width="0.6" />
<rect x = "60" y = "225" width="10" height="15" fill="green" stroke = "yellow" stroke-width="0.6" />
<rect x = "70" y = "225" width="10" height="15" fill="green" stroke = "yellow" stroke-width="0.6" />
<rect x = "80" y = "225" width="10" height="15" fill="green" stroke = "yellow" stroke-width="0.6" />
<rect x = "90" y = "225" width="10" height="15" fill="green" stroke = "yellow" stroke-width="0.6" />
<rect x = "0" y = "240" width="10" height="15" fill="green" stroke = "yellow" stroke-width="0.6" />
<rect x = "10" y = "240" width="10" height="15" fill="green" stroke = "yellow" stroke-width="0.6" />
<rect x = "20" y = "240" width="10" height="15" fill="green" stroke = "yellow" stroke-width="0.6" />
<rect x = "30" y = "240" width="10" height="15" fill="green" stroke = "yellow" stroke-width="0.6" />
<rect x = "40" y = "240" width="10" height="15" fill="green" stroke = "yellow" stroke-width="0.6" />
<rect x = "50" y = "240" width="10" height="15" fill="green" stroke = "yellow" stroke-width="0.6" />
<rect x = "60" y = "240" width="10" height="15" fill="green" stroke = "yellow" stroke-width="0.6" />
<rect x = "70" y = "240" width="10" height="15" fill="green" stroke = "yellow" stroke-width="0.6" />
<rect x = "80" y = "240" width="10" height="15" fill="green" stroke = "yellow" stroke-width="0.6" />
<rect x = "90" y = "240" width="10" height="15" fill="green" stroke = "yellow" stroke-width="0.6" />
<rect x = "0" y = "255" width="10" height="15" fill="green" stroke = "yellow" stroke-width="0.6" />
<rect x = "10" y = "255" width="10" height="15" fill="green" stroke = "yellow" stroke-width="0.6" />
<rect x = "20" y = "255" width="10" height="15" fill="green" stroke = "yellow" stroke-width="0.6" />
<rect x = "30" y = "255" width="10" height="15" fill="green" stroke = "yellow" stroke-width="0.6" />
<rect x = "40" y = "255" width="10" height="15" fill="green" stroke = "yellow" stroke-width="0.6" />
<rect x = "50" y = "255" width="10" height="15" fill="green" stroke = "yellow" stroke-width="0.6" />
<rect x = "60" y = "255" width="10" height="15" fill="green" stroke = "yellow" stroke-width="0.6" />
<rect x = "70" y = "255" width="10" height="15" fill="green" stroke = "yellow" stroke-width="0.6" />
<rect x = "80" y = "255" width="10" height="15" fill="green" stroke = "yellow" stroke-width="0.6" />
<rect x = "90" y = "255" width="10" height="15" fill="green" stroke = "yellow" stroke-width="0.6" />
<rect x = "0" y = "270" width="10" height="15" fill="green" stroke = "yellow" stroke-width="0.6" />
<rect x = "10" y = "270" width="10" height="15" fill="green" stroke = "yellow" stroke-width="0.6" />
<rect x = "20" y = "270" width="10" height="15" fill="green" stroke = "yellow" stroke-width="0.6" />
<rect x = "30" y = "270" width="10" height="15" fill="green" stroke = "yellow" stroke-width="0.6" />
<rect x = "40" y = "270" width="10" height="15" fill="green" stroke = "yellow" stroke-width="0.6" />
<rect x = "50" y = "270" width="10" height="15" fill="green" stroke = "yellow" stroke-width="0.6" />
<rect x = "60" y = "270" width="10" height="15" fill="green" stroke = "yellow" stroke-width="0.6" />
<rect x = "70" y = "270" width="10" height="15" fill="green" stroke = "yellow" stroke-width="0.6" />
<rect x = "80" y = "270" width="10" height="15" fill="green" stroke = "yellow" stroke-width="0.6" />
<rect x = "90" y = "270" width="10" height="15" fill="green" stroke = "yellow" stroke-width="0.6" />
<rect x = "0" y = "285" width="10" height="15" fill="green" stroke = "yellow" stroke-width="0.6" />
<rect x = "10" y = "285" width="10" height="15" fill="green" stroke = "yellow" stroke-width="0.6" />
<rect x = "20" y = "285" width="10" height="15" fill="green" stroke = "yellow" stroke-width="0.6" />
<rect x = "30" y = "285" width="10" height="15" fill="green" stroke = "yellow" stroke-width="0.6" />
<rect x = "40" y = "285" width="10" height="15" fill="green" stroke = "yellow" stroke-width="0.6" />
<rect x = "50" y = "285" width="10" height="15" fill="green" stroke = "yellow" stroke-width="0.6" />
<rect x = "60" y = "285" width="10" height="15" fill="green" stroke = "yellow" stroke-width="0.6" />
<rect x = "70" y = "285" width="10" height="15" fill="green" stroke = "yellow" stroke-width="0.6" />
<rect x = "80" y = "285" width="10" height="15" fill="green" stroke = "yellow" stroke-width="0.6" />
<rect x = "90" y = "285" width="10" height="15" fill="green" stroke = "yellow" stroke-width="0.6" />
</svg>
