<svg version="1.1"
baseProfile="full" 
xmlns="http://www.w3.org/2000/svg">
<rect width="100%" height="100%" fill="white" />"
<polygon points = "100 200, 106.279 199.803, 112.533 199.211, 118.738 198.229, 124.869 196.858, 130.902 195.106, 136.812 192.978, 142.578 190.483, 148.175 187.631, 153.583 184.433, 158.779 180.902, 163.742 177.051, 168.455 172.897, 172.897 168.455, 177.051 163.742, 180.902 158.779, 184.433 153.583, 187.631 148.175, 190.483 142.578, 192.978 136.812, 195.106 130.902, 196.858 124.869, 198.229 118.738, 199.211 112.533, 199.803 106.279, 200 100, 199.803 93.7209, 199.211 87.4667, 198.229 81.2619, 196.858 75.131, 195.106 69.0983, 192.978 63.1875, 190.483 57.4221, 187.631 51.8246, 184.433 46.4173, 180.902 41.2215, 177.051 36.2576, 172.897 31.5453, 168.455 27.1031, 163.742 22.9487, 158.779 19.0983, 153.583 15.5672, 148.175 12.3693, 142.578 9.51729, 136.812 7.02235, 130.902 4.89435, 124.869 3.14168, 118.738 1.77127, 112.533 0.78853, 106.279 0.197327, 100 0, 93.7209 0.197327, 87.4667 0.78853, 81.2619 1.77127, 75.131 3.14168, 69.0983 4.89435, 63.1875 7.02235, 57.4221 9.51729, 51.8246 12.3693, 46.4173 15.5672, 41.2215 19.0983, 36.2576 22.9487, 31.5453 27.1031, 27.1031 31.5453, 22.9487 36.2576, 19.0983 41.2215, 15.5672 46.4173, 12.3693 51.8246, 9.51729 57.4221, 7.02235 63.1875, 4.89435 69.0983, 3.14168 75.131, 1.77127 81.2619, 0.78853 87.4667, 0.197327 93.7209, 0 100, 0.197327 106.279, 0.78853 112.533, 1.77127 118.738, 3.14168 124.869, 4.89435 130.902, 7.02235 136.812, 9.51729 142.578, 12.3693 148.175, 15.5672 153.583, 19.0983 158.779, 22.9487 163.742, 27.1031 168.455, 31.5453 172.897, 36.2576 177.051, 41.2215 180.902, 46.4173 184.433, 51.8246 187.631, 57.4221 190.483, 63.1875 192.978, 69.0983 195.106, 75.131 196.858, 81.2619 198.229, 87.4667 199.211, 93.7209 199.803, " fill = "green" stroke = "yellow" stroke-width = "0.1"/>
</svg>