<svg version="1.1"
baseProfile="full"
xmlns="http://www.w3.org/2000/svg">
<rect width="100%" height="100%" fill="white" />
<circle cx = "100" cy = "100" r = "100" fill = "red"/>
<circle cx = "50" cy = "30" r="10" fill="green" stroke = "yellow" stroke-width = "0.6"/>
<circle cx = "70" cy = "30" r="10" fill="green" stroke = "yellow" stroke-width = "0.6"/>
<circle cx = "90" cy = "30" r="10" fill="green" stroke = "yellow" stroke-width = "0.6"/>
<circle cx = "110" cy = "30" r="10" fill="green" stroke = "yellow" stroke-width = "0.6"/>
<circle cx = "130" cy = "30" r="10" fill="green" stroke = "yellow" stroke-width = "0.6"/>
<circle cx = "150" cy = "30" r="10" fill="green" stroke = "yellow" stroke-width = "0.6"/>
<circle cx = "30" cy = "50" r="10" fill="green" stroke = "yellow" stroke-width = "0.6"/>
<circle cx = "50" cy = "50" r="10" fill="green" stroke = "yellow" stroke-width = "0.6"/>
<circle cx = "70" cy = "50" r="10" fill="green" stroke = "yellow" stroke-width = "0.6"/>
<circle cx = "90" cy = "50" r="10" fill="green" stroke = "yellow" stroke-width = "0.6"/>
<circle cx = "110" cy = "50" r="10" fill="green" stroke = "yellow" stroke-width = "0.6"/>
<circle cx = "130" cy = "50" r="10" fill="green" stroke = "yellow" stroke-width = "0.6"/>
<circle cx = "150" cy = "50" r="10" fill="green" stroke = "yellow" stroke-width = "0.6"/>
<circle cx = "170" cy = "50" r="10" fill="green" stroke = "yellow" stroke-width = "0.6"/>
<circle cx = "30" cy = "70" r="10" fill="green" stroke = "yellow" stroke-width = "0.6"/>
<circle cx = "50" cy = "70" r="10" fill="green" stroke = "yellow" stroke-width = "0.6"/>
<circle cx = "70" cy = "70" r="10" fill="green" stroke = "yellow" stroke-width = "0.6"/>
<circle cx = "90" cy = "70" r="10" fill="green" stroke = "yellow" stroke-width = "0.6"/>
<circle cx = "110" cy = "70" r="10" fill="green" stroke = "yellow" stroke-width = "0.6"/>
<circle cx = "130" cy = "70" r="10" fill="green" stroke = "yellow" stroke-width = "0.6"/>
<circle cx = "150" cy = "70" r="10" fill="green" stroke = "yellow" stroke-width = "0.6"/>
<circle cx = "170" cy = "70" r="10" fill="green" stroke = "yellow" stroke-width = "0.6"/>
<circle cx = "30" cy = "90" r="10" fill="green" stroke = "yellow" stroke-width = "0.6"/>
<circle cx = "50" cy = "90" r="10" fill="green" stroke = "yellow" stroke-width = "0.6"/>
<circle cx = "70" cy = "90" r="10" fill="green" stroke = "yellow" stroke-width = "0.6"/>
<circle cx = "90" cy = "90" r="10" fill="green" stroke = "yellow" stroke-width = "0.6"/>
<circle cx = "110" cy = "90" r="10" fill="green" stroke = "yellow" stroke-width = "0.6"/>
<circle cx = "130" cy = "90" r="10" fill="green" stroke = "yellow" stroke-width = "0.6"/>
<circle cx = "150" cy = "90" r="10" fill="green" stroke = "yellow" stroke-width = "0.6"/>
<circle cx = "170" cy = "90" r="10" fill="green" stroke = "yellow" stroke-width = "0.6"/>
<circle cx = "30" cy = "110" r="10" fill="green" stroke = "yellow" stroke-width = "0.6"/>
<circle cx = "50" cy = "110" r="10" fill="green" stroke = "yellow" stroke-width = "0.6"/>
<circle cx = "70" cy = "110" r="10" fill="green" stroke = "yellow" stroke-width = "0.6"/>
<circle cx = "90" cy = "110" r="10" fill="green" stroke = "yellow" stroke-width = "0.6"/>
<circle cx = "110" cy = "110" r="10" fill="green" stroke = "yellow" stroke-width = "0.6"/>
<circle cx = "130" cy = "110" r="10" fill="green" stroke = "yellow" stroke-width = "0.6"/>
<circle cx = "150" cy = "110" r="10" fill="green" stroke = "yellow" stroke-width = "0.6"/>
<circle cx = "170" cy = "110" r="10" fill="green" stroke = "yellow" stroke-width = "0.6"/>
<circle cx = "30" cy = "130" r="10" fill="green" stroke = "yellow" stroke-width = "0.6"/>
<circle cx = "50" cy = "130" r="10" fill="green" stroke = "yellow" stroke-width = "0.6"/>
<circle cx = "70" cy = "130" r="10" fill="green" stroke = "yellow" stroke-width = "0.6"/>
<circle cx = "90" cy = "130" r="10" fill="green" stroke = "yellow" stroke-width = "0.6"/>
<circle cx = "110" cy = "130" r="10" fill="green" stroke = "yellow" stroke-width = "0.6"/>
<circle cx = "130" cy = "130" r="10" fill="green" stroke = "yellow" stroke-width = "0.6"/>
<circle cx = "150" cy = "130" r="10" fill="green" stroke = "yellow" stroke-width = "0.6"/>
<circle cx = "170" cy = "130" r="10" fill="green" stroke = "yellow" stroke-width = "0.6"/>
<circle cx = "30" cy = "150" r="10" fill="green" stroke = "yellow" stroke-width = "0.6"/>
<circle cx = "50" cy = "150" r="10" fill="green" stroke = "yellow" stroke-width = "0.6"/>
<circle cx = "70" cy = "150" r="10" fill="green" stroke = "yellow" stroke-width = "0.6"/>
<circle cx = "90" cy = "150" r="10" fill="green" stroke = "yellow" stroke-width = "0.6"/>
<circle cx = "110" cy = "150" r="10" fill="green" stroke = "yellow" stroke-width = "0.6"/>
<circle cx = "130" cy = "150" r="10" fill="green" stroke = "yellow" stroke-width = "0.6"/>
<circle cx = "150" cy = "150" r="10" fill="green" stroke = "yellow" stroke-width = "0.6"/>
<circle cx = "170" cy = "150" r="10" fill="green" stroke = "yellow" stroke-width = "0.6"/>
<circle cx = "50" cy = "170" r="10" fill="green" stroke = "yellow" stroke-width = "0.6"/>
<circle cx = "70" cy = "170" r="10" fill="green" stroke = "yellow" stroke-width = "0.6"/>
<circle cx = "90" cy = "170" r="10" fill="green" stroke = "yellow" stroke-width = "0.6"/>
<circle cx = "110" cy = "170" r="10" fill="green" stroke = "yellow" stroke-width = "0.6"/>
<circle cx = "130" cy = "170" r="10" fill="green" stroke = "yellow" stroke-width = "0.6"/>
<circle cx = "150" cy = "170" r="10" fill="green" stroke = "yellow" stroke-width = "0.6"/>
</svg>
