<svg version="1.1"
baseProfile="full"
xmlns="http://www.w3.org/2000/svg">
<rect width="100%" height="100%" fill="white" />
<rect width="100" height="300" fill = "red"/>
<polygon points = "0 0, 15 0, 7.5 12.9904" fill = "green" stroke = "yellow" stroke-width = "0.6"/>
<polygon points = "15 0, 30 0, 22.5 12.9904" fill = "green" stroke = "yellow" stroke-width = "0.6"/>
<polygon points = "30 0, 45 0, 37.5 12.9904" fill = "green" stroke = "yellow" stroke-width = "0.6"/>
<polygon points = "45 0, 60 0, 52.5 12.9904" fill = "green" stroke = "yellow" stroke-width = "0.6"/>
<polygon points = "60 0, 75 0, 67.5 12.9904" fill = "green" stroke = "yellow" stroke-width = "0.6"/>
<polygon points = "75 0, 90 0, 82.5 12.9904" fill = "green" stroke = "yellow" stroke-width = "0.6"/>
<polygon points = "15 0, 22.5 12.9904, 7.5 12.9904" fill = "green" stroke = "yellow" stroke-width = "0.6"/>
<polygon points = "30 0, 37.5 12.9904, 22.5 12.9904" fill = "green" stroke = "yellow" stroke-width = "0.6"/>
<polygon points = "45 0, 52.5 12.9904, 37.5 12.9904" fill = "green" stroke = "yellow" stroke-width = "0.6"/>
<polygon points = "60 0, 67.5 12.9904, 52.5 12.9904" fill = "green" stroke = "yellow" stroke-width = "0.6"/>
<polygon points = "75 0, 82.5 12.9904, 67.5 12.9904" fill = "green" stroke = "yellow" stroke-width = "0.6"/>
<polygon points = "90 0, 97.5 12.9904, 82.5 12.9904" fill = "green" stroke = "yellow" stroke-width = "0.6"/>
<polygon points = "7.5 12.9904, 15 25.9808, 0 25.9808" fill = "green" stroke = "yellow" stroke-width = "0.6"/>
<polygon points = "22.5 12.9904, 30 25.9808, 15 25.9808" fill = "green" stroke = "yellow" stroke-width = "0.6"/>
<polygon points = "37.5 12.9904, 45 25.9808, 30 25.9808" fill = "green" stroke = "yellow" stroke-width = "0.6"/>
<polygon points = "52.5 12.9904, 60 25.9808, 45 25.9808" fill = "green" stroke = "yellow" stroke-width = "0.6"/>
<polygon points = "67.5 12.9904, 75 25.9808, 60 25.9808" fill = "green" stroke = "yellow" stroke-width = "0.6"/>
<polygon points = "82.5 12.9904, 90 25.9808, 75 25.9808" fill = "green" stroke = "yellow" stroke-width = "0.6"/>
<polygon points = "7.5 12.9904, 22.5 12.9904, 15 25.9808" fill = "green" stroke = "yellow" stroke-width = "0.6"/>
<polygon points = "22.5 12.9904, 37.5 12.9904, 30 25.9808" fill = "green" stroke = "yellow" stroke-width = "0.6"/>
<polygon points = "37.5 12.9904, 52.5 12.9904, 45 25.9808" fill = "green" stroke = "yellow" stroke-width = "0.6"/>
<polygon points = "52.5 12.9904, 67.5 12.9904, 60 25.9808" fill = "green" stroke = "yellow" stroke-width = "0.6"/>
<polygon points = "67.5 12.9904, 82.5 12.9904, 75 25.9808" fill = "green" stroke = "yellow" stroke-width = "0.6"/>
<polygon points = "82.5 12.9904, 97.5 12.9904, 90 25.9808" fill = "green" stroke = "yellow" stroke-width = "0.6"/>
<polygon points = "0 25.9808, 15 25.9808, 7.5 38.9711" fill = "green" stroke = "yellow" stroke-width = "0.6"/>
<polygon points = "15 25.9808, 30 25.9808, 22.5 38.9711" fill = "green" stroke = "yellow" stroke-width = "0.6"/>
<polygon points = "30 25.9808, 45 25.9808, 37.5 38.9711" fill = "green" stroke = "yellow" stroke-width = "0.6"/>
<polygon points = "45 25.9808, 60 25.9808, 52.5 38.9711" fill = "green" stroke = "yellow" stroke-width = "0.6"/>
<polygon points = "60 25.9808, 75 25.9808, 67.5 38.9711" fill = "green" stroke = "yellow" stroke-width = "0.6"/>
<polygon points = "75 25.9808, 90 25.9808, 82.5 38.9711" fill = "green" stroke = "yellow" stroke-width = "0.6"/>
<polygon points = "15 25.9808, 22.5 38.9711, 7.5 38.9711" fill = "green" stroke = "yellow" stroke-width = "0.6"/>
<polygon points = "30 25.9808, 37.5 38.9711, 22.5 38.9711" fill = "green" stroke = "yellow" stroke-width = "0.6"/>
<polygon points = "45 25.9808, 52.5 38.9711, 37.5 38.9711" fill = "green" stroke = "yellow" stroke-width = "0.6"/>
<polygon points = "60 25.9808, 67.5 38.9711, 52.5 38.9711" fill = "green" stroke = "yellow" stroke-width = "0.6"/>
<polygon points = "75 25.9808, 82.5 38.9711, 67.5 38.9711" fill = "green" stroke = "yellow" stroke-width = "0.6"/>
<polygon points = "90 25.9808, 97.5 38.9711, 82.5 38.9711" fill = "green" stroke = "yellow" stroke-width = "0.6"/>
<polygon points = "7.5 38.9711, 15 51.9615, 0 51.9615" fill = "green" stroke = "yellow" stroke-width = "0.6"/>
<polygon points = "22.5 38.9711, 30 51.9615, 15 51.9615" fill = "green" stroke = "yellow" stroke-width = "0.6"/>
<polygon points = "37.5 38.9711, 45 51.9615, 30 51.9615" fill = "green" stroke = "yellow" stroke-width = "0.6"/>
<polygon points = "52.5 38.9711, 60 51.9615, 45 51.9615" fill = "green" stroke = "yellow" stroke-width = "0.6"/>
<polygon points = "67.5 38.9711, 75 51.9615, 60 51.9615" fill = "green" stroke = "yellow" stroke-width = "0.6"/>
<polygon points = "82.5 38.9711, 90 51.9615, 75 51.9615" fill = "green" stroke = "yellow" stroke-width = "0.6"/>
<polygon points = "7.5 38.9711, 22.5 38.9711, 15 51.9615" fill = "green" stroke = "yellow" stroke-width = "0.6"/>
<polygon points = "22.5 38.9711, 37.5 38.9711, 30 51.9615" fill = "green" stroke = "yellow" stroke-width = "0.6"/>
<polygon points = "37.5 38.9711, 52.5 38.9711, 45 51.9615" fill = "green" stroke = "yellow" stroke-width = "0.6"/>
<polygon points = "52.5 38.9711, 67.5 38.9711, 60 51.9615" fill = "green" stroke = "yellow" stroke-width = "0.6"/>
<polygon points = "67.5 38.9711, 82.5 38.9711, 75 51.9615" fill = "green" stroke = "yellow" stroke-width = "0.6"/>
<polygon points = "82.5 38.9711, 97.5 38.9711, 90 51.9615" fill = "green" stroke = "yellow" stroke-width = "0.6"/>
<polygon points = "0 51.9615, 15 51.9615, 7.5 64.9519" fill = "green" stroke = "yellow" stroke-width = "0.6"/>
<polygon points = "15 51.9615, 30 51.9615, 22.5 64.9519" fill = "green" stroke = "yellow" stroke-width = "0.6"/>
<polygon points = "30 51.9615, 45 51.9615, 37.5 64.9519" fill = "green" stroke = "yellow" stroke-width = "0.6"/>
<polygon points = "45 51.9615, 60 51.9615, 52.5 64.9519" fill = "green" stroke = "yellow" stroke-width = "0.6"/>
<polygon points = "60 51.9615, 75 51.9615, 67.5 64.9519" fill = "green" stroke = "yellow" stroke-width = "0.6"/>
<polygon points = "75 51.9615, 90 51.9615, 82.5 64.9519" fill = "green" stroke = "yellow" stroke-width = "0.6"/>
<polygon points = "15 51.9615, 22.5 64.9519, 7.5 64.9519" fill = "green" stroke = "yellow" stroke-width = "0.6"/>
<polygon points = "30 51.9615, 37.5 64.9519, 22.5 64.9519" fill = "green" stroke = "yellow" stroke-width = "0.6"/>
<polygon points = "45 51.9615, 52.5 64.9519, 37.5 64.9519" fill = "green" stroke = "yellow" stroke-width = "0.6"/>
<polygon points = "60 51.9615, 67.5 64.9519, 52.5 64.9519" fill = "green" stroke = "yellow" stroke-width = "0.6"/>
<polygon points = "75 51.9615, 82.5 64.9519, 67.5 64.9519" fill = "green" stroke = "yellow" stroke-width = "0.6"/>
<polygon points = "90 51.9615, 97.5 64.9519, 82.5 64.9519" fill = "green" stroke = "yellow" stroke-width = "0.6"/>
<polygon points = "7.5 64.9519, 15 77.9423, 0 77.9423" fill = "green" stroke = "yellow" stroke-width = "0.6"/>
<polygon points = "22.5 64.9519, 30 77.9423, 15 77.9423" fill = "green" stroke = "yellow" stroke-width = "0.6"/>
<polygon points = "37.5 64.9519, 45 77.9423, 30 77.9423" fill = "green" stroke = "yellow" stroke-width = "0.6"/>
<polygon points = "52.5 64.9519, 60 77.9423, 45 77.9423" fill = "green" stroke = "yellow" stroke-width = "0.6"/>
<polygon points = "67.5 64.9519, 75 77.9423, 60 77.9423" fill = "green" stroke = "yellow" stroke-width = "0.6"/>
<polygon points = "82.5 64.9519, 90 77.9423, 75 77.9423" fill = "green" stroke = "yellow" stroke-width = "0.6"/>
<polygon points = "7.5 64.9519, 22.5 64.9519, 15 77.9423" fill = "green" stroke = "yellow" stroke-width = "0.6"/>
<polygon points = "22.5 64.9519, 37.5 64.9519, 30 77.9423" fill = "green" stroke = "yellow" stroke-width = "0.6"/>
<polygon points = "37.5 64.9519, 52.5 64.9519, 45 77.9423" fill = "green" stroke = "yellow" stroke-width = "0.6"/>
<polygon points = "52.5 64.9519, 67.5 64.9519, 60 77.9423" fill = "green" stroke = "yellow" stroke-width = "0.6"/>
<polygon points = "67.5 64.9519, 82.5 64.9519, 75 77.9423" fill = "green" stroke = "yellow" stroke-width = "0.6"/>
<polygon points = "82.5 64.9519, 97.5 64.9519, 90 77.9423" fill = "green" stroke = "yellow" stroke-width = "0.6"/>
<polygon points = "0 77.9423, 15 77.9423, 7.5 90.9327" fill = "green" stroke = "yellow" stroke-width = "0.6"/>
<polygon points = "15 77.9423, 30 77.9423, 22.5 90.9327" fill = "green" stroke = "yellow" stroke-width = "0.6"/>
<polygon points = "30 77.9423, 45 77.9423, 37.5 90.9327" fill = "green" stroke = "yellow" stroke-width = "0.6"/>
<polygon points = "45 77.9423, 60 77.9423, 52.5 90.9327" fill = "green" stroke = "yellow" stroke-width = "0.6"/>
<polygon points = "60 77.9423, 75 77.9423, 67.5 90.9327" fill = "green" stroke = "yellow" stroke-width = "0.6"/>
<polygon points = "75 77.9423, 90 77.9423, 82.5 90.9327" fill = "green" stroke = "yellow" stroke-width = "0.6"/>
<polygon points = "15 77.9423, 22.5 90.9327, 7.5 90.9327" fill = "green" stroke = "yellow" stroke-width = "0.6"/>
<polygon points = "30 77.9423, 37.5 90.9327, 22.5 90.9327" fill = "green" stroke = "yellow" stroke-width = "0.6"/>
<polygon points = "45 77.9423, 52.5 90.9327, 37.5 90.9327" fill = "green" stroke = "yellow" stroke-width = "0.6"/>
<polygon points = "60 77.9423, 67.5 90.9327, 52.5 90.9327" fill = "green" stroke = "yellow" stroke-width = "0.6"/>
<polygon points = "75 77.9423, 82.5 90.9327, 67.5 90.9327" fill = "green" stroke = "yellow" stroke-width = "0.6"/>
<polygon points = "90 77.9423, 97.5 90.9327, 82.5 90.9327" fill = "green" stroke = "yellow" stroke-width = "0.6"/>
<polygon points = "7.5 90.9327, 15 103.923, 0 103.923" fill = "green" stroke = "yellow" stroke-width = "0.6"/>
<polygon points = "22.5 90.9327, 30 103.923, 15 103.923" fill = "green" stroke = "yellow" stroke-width = "0.6"/>
<polygon points = "37.5 90.9327, 45 103.923, 30 103.923" fill = "green" stroke = "yellow" stroke-width = "0.6"/>
<polygon points = "52.5 90.9327, 60 103.923, 45 103.923" fill = "green" stroke = "yellow" stroke-width = "0.6"/>
<polygon points = "67.5 90.9327, 75 103.923, 60 103.923" fill = "green" stroke = "yellow" stroke-width = "0.6"/>
<polygon points = "82.5 90.9327, 90 103.923, 75 103.923" fill = "green" stroke = "yellow" stroke-width = "0.6"/>
<polygon points = "7.5 90.9327, 22.5 90.9327, 15 103.923" fill = "green" stroke = "yellow" stroke-width = "0.6"/>
<polygon points = "22.5 90.9327, 37.5 90.9327, 30 103.923" fill = "green" stroke = "yellow" stroke-width = "0.6"/>
<polygon points = "37.5 90.9327, 52.5 90.9327, 45 103.923" fill = "green" stroke = "yellow" stroke-width = "0.6"/>
<polygon points = "52.5 90.9327, 67.5 90.9327, 60 103.923" fill = "green" stroke = "yellow" stroke-width = "0.6"/>
<polygon points = "67.5 90.9327, 82.5 90.9327, 75 103.923" fill = "green" stroke = "yellow" stroke-width = "0.6"/>
<polygon points = "82.5 90.9327, 97.5 90.9327, 90 103.923" fill = "green" stroke = "yellow" stroke-width = "0.6"/>
<polygon points = "0 103.923, 15 103.923, 7.5 116.913" fill = "green" stroke = "yellow" stroke-width = "0.6"/>
<polygon points = "15 103.923, 30 103.923, 22.5 116.913" fill = "green" stroke = "yellow" stroke-width = "0.6"/>
<polygon points = "30 103.923, 45 103.923, 37.5 116.913" fill = "green" stroke = "yellow" stroke-width = "0.6"/>
<polygon points = "45 103.923, 60 103.923, 52.5 116.913" fill = "green" stroke = "yellow" stroke-width = "0.6"/>
<polygon points = "60 103.923, 75 103.923, 67.5 116.913" fill = "green" stroke = "yellow" stroke-width = "0.6"/>
<polygon points = "75 103.923, 90 103.923, 82.5 116.913" fill = "green" stroke = "yellow" stroke-width = "0.6"/>
<polygon points = "15 103.923, 22.5 116.913, 7.5 116.913" fill = "green" stroke = "yellow" stroke-width = "0.6"/>
<polygon points = "30 103.923, 37.5 116.913, 22.5 116.913" fill = "green" stroke = "yellow" stroke-width = "0.6"/>
<polygon points = "45 103.923, 52.5 116.913, 37.5 116.913" fill = "green" stroke = "yellow" stroke-width = "0.6"/>
<polygon points = "60 103.923, 67.5 116.913, 52.5 116.913" fill = "green" stroke = "yellow" stroke-width = "0.6"/>
<polygon points = "75 103.923, 82.5 116.913, 67.5 116.913" fill = "green" stroke = "yellow" stroke-width = "0.6"/>
<polygon points = "90 103.923, 97.5 116.913, 82.5 116.913" fill = "green" stroke = "yellow" stroke-width = "0.6"/>
<polygon points = "7.5 116.913, 15 129.904, 0 129.904" fill = "green" stroke = "yellow" stroke-width = "0.6"/>
<polygon points = "22.5 116.913, 30 129.904, 15 129.904" fill = "green" stroke = "yellow" stroke-width = "0.6"/>
<polygon points = "37.5 116.913, 45 129.904, 30 129.904" fill = "green" stroke = "yellow" stroke-width = "0.6"/>
<polygon points = "52.5 116.913, 60 129.904, 45 129.904" fill = "green" stroke = "yellow" stroke-width = "0.6"/>
<polygon points = "67.5 116.913, 75 129.904, 60 129.904" fill = "green" stroke = "yellow" stroke-width = "0.6"/>
<polygon points = "82.5 116.913, 90 129.904, 75 129.904" fill = "green" stroke = "yellow" stroke-width = "0.6"/>
<polygon points = "7.5 116.913, 22.5 116.913, 15 129.904" fill = "green" stroke = "yellow" stroke-width = "0.6"/>
<polygon points = "22.5 116.913, 37.5 116.913, 30 129.904" fill = "green" stroke = "yellow" stroke-width = "0.6"/>
<polygon points = "37.5 116.913, 52.5 116.913, 45 129.904" fill = "green" stroke = "yellow" stroke-width = "0.6"/>
<polygon points = "52.5 116.913, 67.5 116.913, 60 129.904" fill = "green" stroke = "yellow" stroke-width = "0.6"/>
<polygon points = "67.5 116.913, 82.5 116.913, 75 129.904" fill = "green" stroke = "yellow" stroke-width = "0.6"/>
<polygon points = "82.5 116.913, 97.5 116.913, 90 129.904" fill = "green" stroke = "yellow" stroke-width = "0.6"/>
<polygon points = "0 129.904, 15 129.904, 7.5 142.894" fill = "green" stroke = "yellow" stroke-width = "0.6"/>
<polygon points = "15 129.904, 30 129.904, 22.5 142.894" fill = "green" stroke = "yellow" stroke-width = "0.6"/>
<polygon points = "30 129.904, 45 129.904, 37.5 142.894" fill = "green" stroke = "yellow" stroke-width = "0.6"/>
<polygon points = "45 129.904, 60 129.904, 52.5 142.894" fill = "green" stroke = "yellow" stroke-width = "0.6"/>
<polygon points = "60 129.904, 75 129.904, 67.5 142.894" fill = "green" stroke = "yellow" stroke-width = "0.6"/>
<polygon points = "75 129.904, 90 129.904, 82.5 142.894" fill = "green" stroke = "yellow" stroke-width = "0.6"/>
<polygon points = "15 129.904, 22.5 142.894, 7.5 142.894" fill = "green" stroke = "yellow" stroke-width = "0.6"/>
<polygon points = "30 129.904, 37.5 142.894, 22.5 142.894" fill = "green" stroke = "yellow" stroke-width = "0.6"/>
<polygon points = "45 129.904, 52.5 142.894, 37.5 142.894" fill = "green" stroke = "yellow" stroke-width = "0.6"/>
<polygon points = "60 129.904, 67.5 142.894, 52.5 142.894" fill = "green" stroke = "yellow" stroke-width = "0.6"/>
<polygon points = "75 129.904, 82.5 142.894, 67.5 142.894" fill = "green" stroke = "yellow" stroke-width = "0.6"/>
<polygon points = "90 129.904, 97.5 142.894, 82.5 142.894" fill = "green" stroke = "yellow" stroke-width = "0.6"/>
<polygon points = "7.5 142.894, 15 155.885, 0 155.885" fill = "green" stroke = "yellow" stroke-width = "0.6"/>
<polygon points = "22.5 142.894, 30 155.885, 15 155.885" fill = "green" stroke = "yellow" stroke-width = "0.6"/>
<polygon points = "37.5 142.894, 45 155.885, 30 155.885" fill = "green" stroke = "yellow" stroke-width = "0.6"/>
<polygon points = "52.5 142.894, 60 155.885, 45 155.885" fill = "green" stroke = "yellow" stroke-width = "0.6"/>
<polygon points = "67.5 142.894, 75 155.885, 60 155.885" fill = "green" stroke = "yellow" stroke-width = "0.6"/>
<polygon points = "82.5 142.894, 90 155.885, 75 155.885" fill = "green" stroke = "yellow" stroke-width = "0.6"/>
<polygon points = "7.5 142.894, 22.5 142.894, 15 155.885" fill = "green" stroke = "yellow" stroke-width = "0.6"/>
<polygon points = "22.5 142.894, 37.5 142.894, 30 155.885" fill = "green" stroke = "yellow" stroke-width = "0.6"/>
<polygon points = "37.5 142.894, 52.5 142.894, 45 155.885" fill = "green" stroke = "yellow" stroke-width = "0.6"/>
<polygon points = "52.5 142.894, 67.5 142.894, 60 155.885" fill = "green" stroke = "yellow" stroke-width = "0.6"/>
<polygon points = "67.5 142.894, 82.5 142.894, 75 155.885" fill = "green" stroke = "yellow" stroke-width = "0.6"/>
<polygon points = "82.5 142.894, 97.5 142.894, 90 155.885" fill = "green" stroke = "yellow" stroke-width = "0.6"/>
<polygon points = "0 155.885, 15 155.885, 7.5 168.875" fill = "green" stroke = "yellow" stroke-width = "0.6"/>
<polygon points = "15 155.885, 30 155.885, 22.5 168.875" fill = "green" stroke = "yellow" stroke-width = "0.6"/>
<polygon points = "30 155.885, 45 155.885, 37.5 168.875" fill = "green" stroke = "yellow" stroke-width = "0.6"/>
<polygon points = "45 155.885, 60 155.885, 52.5 168.875" fill = "green" stroke = "yellow" stroke-width = "0.6"/>
<polygon points = "60 155.885, 75 155.885, 67.5 168.875" fill = "green" stroke = "yellow" stroke-width = "0.6"/>
<polygon points = "75 155.885, 90 155.885, 82.5 168.875" fill = "green" stroke = "yellow" stroke-width = "0.6"/>
<polygon points = "15 155.885, 22.5 168.875, 7.5 168.875" fill = "green" stroke = "yellow" stroke-width = "0.6"/>
<polygon points = "30 155.885, 37.5 168.875, 22.5 168.875" fill = "green" stroke = "yellow" stroke-width = "0.6"/>
<polygon points = "45 155.885, 52.5 168.875, 37.5 168.875" fill = "green" stroke = "yellow" stroke-width = "0.6"/>
<polygon points = "60 155.885, 67.5 168.875, 52.5 168.875" fill = "green" stroke = "yellow" stroke-width = "0.6"/>
<polygon points = "75 155.885, 82.5 168.875, 67.5 168.875" fill = "green" stroke = "yellow" stroke-width = "0.6"/>
<polygon points = "90 155.885, 97.5 168.875, 82.5 168.875" fill = "green" stroke = "yellow" stroke-width = "0.6"/>
<polygon points = "7.5 168.875, 15 181.865, 0 181.865" fill = "green" stroke = "yellow" stroke-width = "0.6"/>
<polygon points = "22.5 168.875, 30 181.865, 15 181.865" fill = "green" stroke = "yellow" stroke-width = "0.6"/>
<polygon points = "37.5 168.875, 45 181.865, 30 181.865" fill = "green" stroke = "yellow" stroke-width = "0.6"/>
<polygon points = "52.5 168.875, 60 181.865, 45 181.865" fill = "green" stroke = "yellow" stroke-width = "0.6"/>
<polygon points = "67.5 168.875, 75 181.865, 60 181.865" fill = "green" stroke = "yellow" stroke-width = "0.6"/>
<polygon points = "82.5 168.875, 90 181.865, 75 181.865" fill = "green" stroke = "yellow" stroke-width = "0.6"/>
<polygon points = "7.5 168.875, 22.5 168.875, 15 181.865" fill = "green" stroke = "yellow" stroke-width = "0.6"/>
<polygon points = "22.5 168.875, 37.5 168.875, 30 181.865" fill = "green" stroke = "yellow" stroke-width = "0.6"/>
<polygon points = "37.5 168.875, 52.5 168.875, 45 181.865" fill = "green" stroke = "yellow" stroke-width = "0.6"/>
<polygon points = "52.5 168.875, 67.5 168.875, 60 181.865" fill = "green" stroke = "yellow" stroke-width = "0.6"/>
<polygon points = "67.5 168.875, 82.5 168.875, 75 181.865" fill = "green" stroke = "yellow" stroke-width = "0.6"/>
<polygon points = "82.5 168.875, 97.5 168.875, 90 181.865" fill = "green" stroke = "yellow" stroke-width = "0.6"/>
<polygon points = "0 181.865, 15 181.865, 7.5 194.856" fill = "green" stroke = "yellow" stroke-width = "0.6"/>
<polygon points = "15 181.865, 30 181.865, 22.5 194.856" fill = "green" stroke = "yellow" stroke-width = "0.6"/>
<polygon points = "30 181.865, 45 181.865, 37.5 194.856" fill = "green" stroke = "yellow" stroke-width = "0.6"/>
<polygon points = "45 181.865, 60 181.865, 52.5 194.856" fill = "green" stroke = "yellow" stroke-width = "0.6"/>
<polygon points = "60 181.865, 75 181.865, 67.5 194.856" fill = "green" stroke = "yellow" stroke-width = "0.6"/>
<polygon points = "75 181.865, 90 181.865, 82.5 194.856" fill = "green" stroke = "yellow" stroke-width = "0.6"/>
<polygon points = "15 181.865, 22.5 194.856, 7.5 194.856" fill = "green" stroke = "yellow" stroke-width = "0.6"/>
<polygon points = "30 181.865, 37.5 194.856, 22.5 194.856" fill = "green" stroke = "yellow" stroke-width = "0.6"/>
<polygon points = "45 181.865, 52.5 194.856, 37.5 194.856" fill = "green" stroke = "yellow" stroke-width = "0.6"/>
<polygon points = "60 181.865, 67.5 194.856, 52.5 194.856" fill = "green" stroke = "yellow" stroke-width = "0.6"/>
<polygon points = "75 181.865, 82.5 194.856, 67.5 194.856" fill = "green" stroke = "yellow" stroke-width = "0.6"/>
<polygon points = "90 181.865, 97.5 194.856, 82.5 194.856" fill = "green" stroke = "yellow" stroke-width = "0.6"/>
<polygon points = "7.5 194.856, 15 207.846, 0 207.846" fill = "green" stroke = "yellow" stroke-width = "0.6"/>
<polygon points = "22.5 194.856, 30 207.846, 15 207.846" fill = "green" stroke = "yellow" stroke-width = "0.6"/>
<polygon points = "37.5 194.856, 45 207.846, 30 207.846" fill = "green" stroke = "yellow" stroke-width = "0.6"/>
<polygon points = "52.5 194.856, 60 207.846, 45 207.846" fill = "green" stroke = "yellow" stroke-width = "0.6"/>
<polygon points = "67.5 194.856, 75 207.846, 60 207.846" fill = "green" stroke = "yellow" stroke-width = "0.6"/>
<polygon points = "82.5 194.856, 90 207.846, 75 207.846" fill = "green" stroke = "yellow" stroke-width = "0.6"/>
<polygon points = "7.5 194.856, 22.5 194.856, 15 207.846" fill = "green" stroke = "yellow" stroke-width = "0.6"/>
<polygon points = "22.5 194.856, 37.5 194.856, 30 207.846" fill = "green" stroke = "yellow" stroke-width = "0.6"/>
<polygon points = "37.5 194.856, 52.5 194.856, 45 207.846" fill = "green" stroke = "yellow" stroke-width = "0.6"/>
<polygon points = "52.5 194.856, 67.5 194.856, 60 207.846" fill = "green" stroke = "yellow" stroke-width = "0.6"/>
<polygon points = "67.5 194.856, 82.5 194.856, 75 207.846" fill = "green" stroke = "yellow" stroke-width = "0.6"/>
<polygon points = "82.5 194.856, 97.5 194.856, 90 207.846" fill = "green" stroke = "yellow" stroke-width = "0.6"/>
<polygon points = "0 207.846, 15 207.846, 7.5 220.836" fill = "green" stroke = "yellow" stroke-width = "0.6"/>
<polygon points = "15 207.846, 30 207.846, 22.5 220.836" fill = "green" stroke = "yellow" stroke-width = "0.6"/>
<polygon points = "30 207.846, 45 207.846, 37.5 220.836" fill = "green" stroke = "yellow" stroke-width = "0.6"/>
<polygon points = "45 207.846, 60 207.846, 52.5 220.836" fill = "green" stroke = "yellow" stroke-width = "0.6"/>
<polygon points = "60 207.846, 75 207.846, 67.5 220.836" fill = "green" stroke = "yellow" stroke-width = "0.6"/>
<polygon points = "75 207.846, 90 207.846, 82.5 220.836" fill = "green" stroke = "yellow" stroke-width = "0.6"/>
<polygon points = "15 207.846, 22.5 220.836, 7.5 220.836" fill = "green" stroke = "yellow" stroke-width = "0.6"/>
<polygon points = "30 207.846, 37.5 220.836, 22.5 220.836" fill = "green" stroke = "yellow" stroke-width = "0.6"/>
<polygon points = "45 207.846, 52.5 220.836, 37.5 220.836" fill = "green" stroke = "yellow" stroke-width = "0.6"/>
<polygon points = "60 207.846, 67.5 220.836, 52.5 220.836" fill = "green" stroke = "yellow" stroke-width = "0.6"/>
<polygon points = "75 207.846, 82.5 220.836, 67.5 220.836" fill = "green" stroke = "yellow" stroke-width = "0.6"/>
<polygon points = "90 207.846, 97.5 220.836, 82.5 220.836" fill = "green" stroke = "yellow" stroke-width = "0.6"/>
<polygon points = "7.5 220.836, 15 233.827, 0 233.827" fill = "green" stroke = "yellow" stroke-width = "0.6"/>
<polygon points = "22.5 220.836, 30 233.827, 15 233.827" fill = "green" stroke = "yellow" stroke-width = "0.6"/>
<polygon points = "37.5 220.836, 45 233.827, 30 233.827" fill = "green" stroke = "yellow" stroke-width = "0.6"/>
<polygon points = "52.5 220.836, 60 233.827, 45 233.827" fill = "green" stroke = "yellow" stroke-width = "0.6"/>
<polygon points = "67.5 220.836, 75 233.827, 60 233.827" fill = "green" stroke = "yellow" stroke-width = "0.6"/>
<polygon points = "82.5 220.836, 90 233.827, 75 233.827" fill = "green" stroke = "yellow" stroke-width = "0.6"/>
<polygon points = "7.5 220.836, 22.5 220.836, 15 233.827" fill = "green" stroke = "yellow" stroke-width = "0.6"/>
<polygon points = "22.5 220.836, 37.5 220.836, 30 233.827" fill = "green" stroke = "yellow" stroke-width = "0.6"/>
<polygon points = "37.5 220.836, 52.5 220.836, 45 233.827" fill = "green" stroke = "yellow" stroke-width = "0.6"/>
<polygon points = "52.5 220.836, 67.5 220.836, 60 233.827" fill = "green" stroke = "yellow" stroke-width = "0.6"/>
<polygon points = "67.5 220.836, 82.5 220.836, 75 233.827" fill = "green" stroke = "yellow" stroke-width = "0.6"/>
<polygon points = "82.5 220.836, 97.5 220.836, 90 233.827" fill = "green" stroke = "yellow" stroke-width = "0.6"/>
<polygon points = "0 233.827, 15 233.827, 7.5 246.817" fill = "green" stroke = "yellow" stroke-width = "0.6"/>
<polygon points = "15 233.827, 30 233.827, 22.5 246.817" fill = "green" stroke = "yellow" stroke-width = "0.6"/>
<polygon points = "30 233.827, 45 233.827, 37.5 246.817" fill = "green" stroke = "yellow" stroke-width = "0.6"/>
<polygon points = "45 233.827, 60 233.827, 52.5 246.817" fill = "green" stroke = "yellow" stroke-width = "0.6"/>
<polygon points = "60 233.827, 75 233.827, 67.5 246.817" fill = "green" stroke = "yellow" stroke-width = "0.6"/>
<polygon points = "75 233.827, 90 233.827, 82.5 246.817" fill = "green" stroke = "yellow" stroke-width = "0.6"/>
<polygon points = "15 233.827, 22.5 246.817, 7.5 246.817" fill = "green" stroke = "yellow" stroke-width = "0.6"/>
<polygon points = "30 233.827, 37.5 246.817, 22.5 246.817" fill = "green" stroke = "yellow" stroke-width = "0.6"/>
<polygon points = "45 233.827, 52.5 246.817, 37.5 246.817" fill = "green" stroke = "yellow" stroke-width = "0.6"/>
<polygon points = "60 233.827, 67.5 246.817, 52.5 246.817" fill = "green" stroke = "yellow" stroke-width = "0.6"/>
<polygon points = "75 233.827, 82.5 246.817, 67.5 246.817" fill = "green" stroke = "yellow" stroke-width = "0.6"/>
<polygon points = "90 233.827, 97.5 246.817, 82.5 246.817" fill = "green" stroke = "yellow" stroke-width = "0.6"/>
<polygon points = "7.5 246.817, 15 259.808, 0 259.808" fill = "green" stroke = "yellow" stroke-width = "0.6"/>
<polygon points = "22.5 246.817, 30 259.808, 15 259.808" fill = "green" stroke = "yellow" stroke-width = "0.6"/>
<polygon points = "37.5 246.817, 45 259.808, 30 259.808" fill = "green" stroke = "yellow" stroke-width = "0.6"/>
<polygon points = "52.5 246.817, 60 259.808, 45 259.808" fill = "green" stroke = "yellow" stroke-width = "0.6"/>
<polygon points = "67.5 246.817, 75 259.808, 60 259.808" fill = "green" stroke = "yellow" stroke-width = "0.6"/>
<polygon points = "82.5 246.817, 90 259.808, 75 259.808" fill = "green" stroke = "yellow" stroke-width = "0.6"/>
<polygon points = "7.5 246.817, 22.5 246.817, 15 259.808" fill = "green" stroke = "yellow" stroke-width = "0.6"/>
<polygon points = "22.5 246.817, 37.5 246.817, 30 259.808" fill = "green" stroke = "yellow" stroke-width = "0.6"/>
<polygon points = "37.5 246.817, 52.5 246.817, 45 259.808" fill = "green" stroke = "yellow" stroke-width = "0.6"/>
<polygon points = "52.5 246.817, 67.5 246.817, 60 259.808" fill = "green" stroke = "yellow" stroke-width = "0.6"/>
<polygon points = "67.5 246.817, 82.5 246.817, 75 259.808" fill = "green" stroke = "yellow" stroke-width = "0.6"/>
<polygon points = "82.5 246.817, 97.5 246.817, 90 259.808" fill = "green" stroke = "yellow" stroke-width = "0.6"/>
<polygon points = "0 259.808, 15 259.808, 7.5 272.798" fill = "green" stroke = "yellow" stroke-width = "0.6"/>
<polygon points = "15 259.808, 30 259.808, 22.5 272.798" fill = "green" stroke = "yellow" stroke-width = "0.6"/>
<polygon points = "30 259.808, 45 259.808, 37.5 272.798" fill = "green" stroke = "yellow" stroke-width = "0.6"/>
<polygon points = "45 259.808, 60 259.808, 52.5 272.798" fill = "green" stroke = "yellow" stroke-width = "0.6"/>
<polygon points = "60 259.808, 75 259.808, 67.5 272.798" fill = "green" stroke = "yellow" stroke-width = "0.6"/>
<polygon points = "75 259.808, 90 259.808, 82.5 272.798" fill = "green" stroke = "yellow" stroke-width = "0.6"/>
<polygon points = "15 259.808, 22.5 272.798, 7.5 272.798" fill = "green" stroke = "yellow" stroke-width = "0.6"/>
<polygon points = "30 259.808, 37.5 272.798, 22.5 272.798" fill = "green" stroke = "yellow" stroke-width = "0.6"/>
<polygon points = "45 259.808, 52.5 272.798, 37.5 272.798" fill = "green" stroke = "yellow" stroke-width = "0.6"/>
<polygon points = "60 259.808, 67.5 272.798, 52.5 272.798" fill = "green" stroke = "yellow" stroke-width = "0.6"/>
<polygon points = "75 259.808, 82.5 272.798, 67.5 272.798" fill = "green" stroke = "yellow" stroke-width = "0.6"/>
<polygon points = "90 259.808, 97.5 272.798, 82.5 272.798" fill = "green" stroke = "yellow" stroke-width = "0.6"/>
<polygon points = "7.5 272.798, 15 285.788, 0 285.788" fill = "green" stroke = "yellow" stroke-width = "0.6"/>
<polygon points = "22.5 272.798, 30 285.788, 15 285.788" fill = "green" stroke = "yellow" stroke-width = "0.6"/>
<polygon points = "37.5 272.798, 45 285.788, 30 285.788" fill = "green" stroke = "yellow" stroke-width = "0.6"/>
<polygon points = "52.5 272.798, 60 285.788, 45 285.788" fill = "green" stroke = "yellow" stroke-width = "0.6"/>
<polygon points = "67.5 272.798, 75 285.788, 60 285.788" fill = "green" stroke = "yellow" stroke-width = "0.6"/>
<polygon points = "82.5 272.798, 90 285.788, 75 285.788" fill = "green" stroke = "yellow" stroke-width = "0.6"/>
<polygon points = "7.5 272.798, 22.5 272.798, 15 285.788" fill = "green" stroke = "yellow" stroke-width = "0.6"/>
<polygon points = "22.5 272.798, 37.5 272.798, 30 285.788" fill = "green" stroke = "yellow" stroke-width = "0.6"/>
<polygon points = "37.5 272.798, 52.5 272.798, 45 285.788" fill = "green" stroke = "yellow" stroke-width = "0.6"/>
<polygon points = "52.5 272.798, 67.5 272.798, 60 285.788" fill = "green" stroke = "yellow" stroke-width = "0.6"/>
<polygon points = "67.5 272.798, 82.5 272.798, 75 285.788" fill = "green" stroke = "yellow" stroke-width = "0.6"/>
<polygon points = "82.5 272.798, 97.5 272.798, 90 285.788" fill = "green" stroke = "yellow" stroke-width = "0.6"/>
<polygon points = "0 285.788, 15 285.788, 7.5 298.779" fill = "green" stroke = "yellow" stroke-width = "0.6"/>
<polygon points = "15 285.788, 30 285.788, 22.5 298.779" fill = "green" stroke = "yellow" stroke-width = "0.6"/>
<polygon points = "30 285.788, 45 285.788, 37.5 298.779" fill = "green" stroke = "yellow" stroke-width = "0.6"/>
<polygon points = "45 285.788, 60 285.788, 52.5 298.779" fill = "green" stroke = "yellow" stroke-width = "0.6"/>
<polygon points = "60 285.788, 75 285.788, 67.5 298.779" fill = "green" stroke = "yellow" stroke-width = "0.6"/>
<polygon points = "75 285.788, 90 285.788, 82.5 298.779" fill = "green" stroke = "yellow" stroke-width = "0.6"/>
<polygon points = "15 285.788, 22.5 298.779, 7.5 298.779" fill = "green" stroke = "yellow" stroke-width = "0.6"/>
<polygon points = "30 285.788, 37.5 298.779, 22.5 298.779" fill = "green" stroke = "yellow" stroke-width = "0.6"/>
<polygon points = "45 285.788, 52.5 298.779, 37.5 298.779" fill = "green" stroke = "yellow" stroke-width = "0.6"/>
<polygon points = "60 285.788, 67.5 298.779, 52.5 298.779" fill = "green" stroke = "yellow" stroke-width = "0.6"/>
<polygon points = "75 285.788, 82.5 298.779, 67.5 298.779" fill = "green" stroke = "yellow" stroke-width = "0.6"/>
<polygon points = "90 285.788, 97.5 298.779, 82.5 298.779" fill = "green" stroke = "yellow" stroke-width = "0.6"/>
</svg>
