<svg version="1.1"
baseProfile="full"
xmlns="http://www.w3.org/2000/svg">
<rect width="100%" height="100%" fill="white" />
<rect width="100" height="300" fill = "red"/>
<circle cx = "20" cy = "10" r="10" fill="green" stroke = "yellow" stroke-width = "0.6"/>
<circle cx = "40" cy = "10" r="10" fill="green" stroke = "yellow" stroke-width = "0.6"/>
<circle cx = "60" cy = "10" r="10" fill="green" stroke = "yellow" stroke-width = "0.6"/>
<circle cx = "80" cy = "10" r="10" fill="green" stroke = "yellow" stroke-width = "0.6"/>
<circle cx = "10" cy = "27.3205" r="10" fill="green" stroke = "yellow" stroke-width = "0.6"/>
<circle cx = "30" cy = "27.3205" r="10" fill="green" stroke = "yellow" stroke-width = "0.6"/>
<circle cx = "50" cy = "27.3205" r="10" fill="green" stroke = "yellow" stroke-width = "0.6"/>
<circle cx = "70" cy = "27.3205" r="10" fill="green" stroke = "yellow" stroke-width = "0.6"/>
<circle cx = "90" cy = "27.3205" r="10" fill="green" stroke = "yellow" stroke-width = "0.6"/>
<circle cx = "20" cy = "44.641" r="10" fill="green" stroke = "yellow" stroke-width = "0.6"/>
<circle cx = "40" cy = "44.641" r="10" fill="green" stroke = "yellow" stroke-width = "0.6"/>
<circle cx = "60" cy = "44.641" r="10" fill="green" stroke = "yellow" stroke-width = "0.6"/>
<circle cx = "80" cy = "44.641" r="10" fill="green" stroke = "yellow" stroke-width = "0.6"/>
<circle cx = "10" cy = "61.9615" r="10" fill="green" stroke = "yellow" stroke-width = "0.6"/>
<circle cx = "30" cy = "61.9615" r="10" fill="green" stroke = "yellow" stroke-width = "0.6"/>
<circle cx = "50" cy = "61.9615" r="10" fill="green" stroke = "yellow" stroke-width = "0.6"/>
<circle cx = "70" cy = "61.9615" r="10" fill="green" stroke = "yellow" stroke-width = "0.6"/>
<circle cx = "90" cy = "61.9615" r="10" fill="green" stroke = "yellow" stroke-width = "0.6"/>
<circle cx = "20" cy = "79.282" r="10" fill="green" stroke = "yellow" stroke-width = "0.6"/>
<circle cx = "40" cy = "79.282" r="10" fill="green" stroke = "yellow" stroke-width = "0.6"/>
<circle cx = "60" cy = "79.282" r="10" fill="green" stroke = "yellow" stroke-width = "0.6"/>
<circle cx = "80" cy = "79.282" r="10" fill="green" stroke = "yellow" stroke-width = "0.6"/>
<circle cx = "10" cy = "96.6025" r="10" fill="green" stroke = "yellow" stroke-width = "0.6"/>
<circle cx = "30" cy = "96.6025" r="10" fill="green" stroke = "yellow" stroke-width = "0.6"/>
<circle cx = "50" cy = "96.6025" r="10" fill="green" stroke = "yellow" stroke-width = "0.6"/>
<circle cx = "70" cy = "96.6025" r="10" fill="green" stroke = "yellow" stroke-width = "0.6"/>
<circle cx = "90" cy = "96.6025" r="10" fill="green" stroke = "yellow" stroke-width = "0.6"/>
<circle cx = "20" cy = "113.923" r="10" fill="green" stroke = "yellow" stroke-width = "0.6"/>
<circle cx = "40" cy = "113.923" r="10" fill="green" stroke = "yellow" stroke-width = "0.6"/>
<circle cx = "60" cy = "113.923" r="10" fill="green" stroke = "yellow" stroke-width = "0.6"/>
<circle cx = "80" cy = "113.923" r="10" fill="green" stroke = "yellow" stroke-width = "0.6"/>
<circle cx = "10" cy = "131.244" r="10" fill="green" stroke = "yellow" stroke-width = "0.6"/>
<circle cx = "30" cy = "131.244" r="10" fill="green" stroke = "yellow" stroke-width = "0.6"/>
<circle cx = "50" cy = "131.244" r="10" fill="green" stroke = "yellow" stroke-width = "0.6"/>
<circle cx = "70" cy = "131.244" r="10" fill="green" stroke = "yellow" stroke-width = "0.6"/>
<circle cx = "90" cy = "131.244" r="10" fill="green" stroke = "yellow" stroke-width = "0.6"/>
<circle cx = "20" cy = "148.564" r="10" fill="green" stroke = "yellow" stroke-width = "0.6"/>
<circle cx = "40" cy = "148.564" r="10" fill="green" stroke = "yellow" stroke-width = "0.6"/>
<circle cx = "60" cy = "148.564" r="10" fill="green" stroke = "yellow" stroke-width = "0.6"/>
<circle cx = "80" cy = "148.564" r="10" fill="green" stroke = "yellow" stroke-width = "0.6"/>
<circle cx = "10" cy = "165.885" r="10" fill="green" stroke = "yellow" stroke-width = "0.6"/>
<circle cx = "30" cy = "165.885" r="10" fill="green" stroke = "yellow" stroke-width = "0.6"/>
<circle cx = "50" cy = "165.885" r="10" fill="green" stroke = "yellow" stroke-width = "0.6"/>
<circle cx = "70" cy = "165.885" r="10" fill="green" stroke = "yellow" stroke-width = "0.6"/>
<circle cx = "90" cy = "165.885" r="10" fill="green" stroke = "yellow" stroke-width = "0.6"/>
<circle cx = "20" cy = "183.205" r="10" fill="green" stroke = "yellow" stroke-width = "0.6"/>
<circle cx = "40" cy = "183.205" r="10" fill="green" stroke = "yellow" stroke-width = "0.6"/>
<circle cx = "60" cy = "183.205" r="10" fill="green" stroke = "yellow" stroke-width = "0.6"/>
<circle cx = "80" cy = "183.205" r="10" fill="green" stroke = "yellow" stroke-width = "0.6"/>
<circle cx = "10" cy = "200.526" r="10" fill="green" stroke = "yellow" stroke-width = "0.6"/>
<circle cx = "30" cy = "200.526" r="10" fill="green" stroke = "yellow" stroke-width = "0.6"/>
<circle cx = "50" cy = "200.526" r="10" fill="green" stroke = "yellow" stroke-width = "0.6"/>
<circle cx = "70" cy = "200.526" r="10" fill="green" stroke = "yellow" stroke-width = "0.6"/>
<circle cx = "90" cy = "200.526" r="10" fill="green" stroke = "yellow" stroke-width = "0.6"/>
<circle cx = "20" cy = "217.846" r="10" fill="green" stroke = "yellow" stroke-width = "0.6"/>
<circle cx = "40" cy = "217.846" r="10" fill="green" stroke = "yellow" stroke-width = "0.6"/>
<circle cx = "60" cy = "217.846" r="10" fill="green" stroke = "yellow" stroke-width = "0.6"/>
<circle cx = "80" cy = "217.846" r="10" fill="green" stroke = "yellow" stroke-width = "0.6"/>
<circle cx = "10" cy = "235.167" r="10" fill="green" stroke = "yellow" stroke-width = "0.6"/>
<circle cx = "30" cy = "235.167" r="10" fill="green" stroke = "yellow" stroke-width = "0.6"/>
<circle cx = "50" cy = "235.167" r="10" fill="green" stroke = "yellow" stroke-width = "0.6"/>
<circle cx = "70" cy = "235.167" r="10" fill="green" stroke = "yellow" stroke-width = "0.6"/>
<circle cx = "90" cy = "235.167" r="10" fill="green" stroke = "yellow" stroke-width = "0.6"/>
<circle cx = "20" cy = "252.487" r="10" fill="green" stroke = "yellow" stroke-width = "0.6"/>
<circle cx = "40" cy = "252.487" r="10" fill="green" stroke = "yellow" stroke-width = "0.6"/>
<circle cx = "60" cy = "252.487" r="10" fill="green" stroke = "yellow" stroke-width = "0.6"/>
<circle cx = "80" cy = "252.487" r="10" fill="green" stroke = "yellow" stroke-width = "0.6"/>
<circle cx = "10" cy = "269.808" r="10" fill="green" stroke = "yellow" stroke-width = "0.6"/>
<circle cx = "30" cy = "269.808" r="10" fill="green" stroke = "yellow" stroke-width = "0.6"/>
<circle cx = "50" cy = "269.808" r="10" fill="green" stroke = "yellow" stroke-width = "0.6"/>
<circle cx = "70" cy = "269.808" r="10" fill="green" stroke = "yellow" stroke-width = "0.6"/>
<circle cx = "90" cy = "269.808" r="10" fill="green" stroke = "yellow" stroke-width = "0.6"/>
<circle cx = "20" cy = "287.128" r="10" fill="green" stroke = "yellow" stroke-width = "0.6"/>
<circle cx = "40" cy = "287.128" r="10" fill="green" stroke = "yellow" stroke-width = "0.6"/>
<circle cx = "60" cy = "287.128" r="10" fill="green" stroke = "yellow" stroke-width = "0.6"/>
<circle cx = "80" cy = "287.128" r="10" fill="green" stroke = "yellow" stroke-width = "0.6"/>
<circle cx = "20" cy = "10" r="10" fill="green" stroke = "yellow" stroke-width = "0.6"/>
<circle cx = "40" cy = "10" r="10" fill="green" stroke = "yellow" stroke-width = "0.6"/>
<circle cx = "60" cy = "10" r="10" fill="green" stroke = "yellow" stroke-width = "0.6"/>
<circle cx = "80" cy = "10" r="10" fill="green" stroke = "yellow" stroke-width = "0.6"/>
<circle cx = "10" cy = "27.3205" r="10" fill="green" stroke = "yellow" stroke-width = "0.6"/>
<circle cx = "30" cy = "27.3205" r="10" fill="green" stroke = "yellow" stroke-width = "0.6"/>
<circle cx = "50" cy = "27.3205" r="10" fill="green" stroke = "yellow" stroke-width = "0.6"/>
<circle cx = "70" cy = "27.3205" r="10" fill="green" stroke = "yellow" stroke-width = "0.6"/>
<circle cx = "90" cy = "27.3205" r="10" fill="green" stroke = "yellow" stroke-width = "0.6"/>
<circle cx = "20" cy = "44.641" r="10" fill="green" stroke = "yellow" stroke-width = "0.6"/>
<circle cx = "40" cy = "44.641" r="10" fill="green" stroke = "yellow" stroke-width = "0.6"/>
<circle cx = "60" cy = "44.641" r="10" fill="green" stroke = "yellow" stroke-width = "0.6"/>
<circle cx = "80" cy = "44.641" r="10" fill="green" stroke = "yellow" stroke-width = "0.6"/>
<circle cx = "10" cy = "61.9615" r="10" fill="green" stroke = "yellow" stroke-width = "0.6"/>
<circle cx = "30" cy = "61.9615" r="10" fill="green" stroke = "yellow" stroke-width = "0.6"/>
<circle cx = "50" cy = "61.9615" r="10" fill="green" stroke = "yellow" stroke-width = "0.6"/>
<circle cx = "70" cy = "61.9615" r="10" fill="green" stroke = "yellow" stroke-width = "0.6"/>
<circle cx = "90" cy = "61.9615" r="10" fill="green" stroke = "yellow" stroke-width = "0.6"/>
<circle cx = "20" cy = "79.282" r="10" fill="green" stroke = "yellow" stroke-width = "0.6"/>
<circle cx = "40" cy = "79.282" r="10" fill="green" stroke = "yellow" stroke-width = "0.6"/>
<circle cx = "60" cy = "79.282" r="10" fill="green" stroke = "yellow" stroke-width = "0.6"/>
<circle cx = "80" cy = "79.282" r="10" fill="green" stroke = "yellow" stroke-width = "0.6"/>
<circle cx = "10" cy = "96.6025" r="10" fill="green" stroke = "yellow" stroke-width = "0.6"/>
<circle cx = "30" cy = "96.6025" r="10" fill="green" stroke = "yellow" stroke-width = "0.6"/>
<circle cx = "50" cy = "96.6025" r="10" fill="green" stroke = "yellow" stroke-width = "0.6"/>
<circle cx = "70" cy = "96.6025" r="10" fill="green" stroke = "yellow" stroke-width = "0.6"/>
<circle cx = "90" cy = "96.6025" r="10" fill="green" stroke = "yellow" stroke-width = "0.6"/>
<circle cx = "20" cy = "113.923" r="10" fill="green" stroke = "yellow" stroke-width = "0.6"/>
<circle cx = "40" cy = "113.923" r="10" fill="green" stroke = "yellow" stroke-width = "0.6"/>
<circle cx = "60" cy = "113.923" r="10" fill="green" stroke = "yellow" stroke-width = "0.6"/>
<circle cx = "80" cy = "113.923" r="10" fill="green" stroke = "yellow" stroke-width = "0.6"/>
<circle cx = "10" cy = "131.244" r="10" fill="green" stroke = "yellow" stroke-width = "0.6"/>
<circle cx = "30" cy = "131.244" r="10" fill="green" stroke = "yellow" stroke-width = "0.6"/>
<circle cx = "50" cy = "131.244" r="10" fill="green" stroke = "yellow" stroke-width = "0.6"/>
<circle cx = "70" cy = "131.244" r="10" fill="green" stroke = "yellow" stroke-width = "0.6"/>
<circle cx = "90" cy = "131.244" r="10" fill="green" stroke = "yellow" stroke-width = "0.6"/>
<circle cx = "20" cy = "148.564" r="10" fill="green" stroke = "yellow" stroke-width = "0.6"/>
<circle cx = "40" cy = "148.564" r="10" fill="green" stroke = "yellow" stroke-width = "0.6"/>
<circle cx = "60" cy = "148.564" r="10" fill="green" stroke = "yellow" stroke-width = "0.6"/>
<circle cx = "80" cy = "148.564" r="10" fill="green" stroke = "yellow" stroke-width = "0.6"/>
<circle cx = "10" cy = "165.885" r="10" fill="green" stroke = "yellow" stroke-width = "0.6"/>
<circle cx = "30" cy = "165.885" r="10" fill="green" stroke = "yellow" stroke-width = "0.6"/>
<circle cx = "50" cy = "165.885" r="10" fill="green" stroke = "yellow" stroke-width = "0.6"/>
<circle cx = "70" cy = "165.885" r="10" fill="green" stroke = "yellow" stroke-width = "0.6"/>
<circle cx = "90" cy = "165.885" r="10" fill="green" stroke = "yellow" stroke-width = "0.6"/>
<circle cx = "20" cy = "183.205" r="10" fill="green" stroke = "yellow" stroke-width = "0.6"/>
<circle cx = "40" cy = "183.205" r="10" fill="green" stroke = "yellow" stroke-width = "0.6"/>
<circle cx = "60" cy = "183.205" r="10" fill="green" stroke = "yellow" stroke-width = "0.6"/>
<circle cx = "80" cy = "183.205" r="10" fill="green" stroke = "yellow" stroke-width = "0.6"/>
<circle cx = "10" cy = "200.526" r="10" fill="green" stroke = "yellow" stroke-width = "0.6"/>
<circle cx = "30" cy = "200.526" r="10" fill="green" stroke = "yellow" stroke-width = "0.6"/>
<circle cx = "50" cy = "200.526" r="10" fill="green" stroke = "yellow" stroke-width = "0.6"/>
<circle cx = "70" cy = "200.526" r="10" fill="green" stroke = "yellow" stroke-width = "0.6"/>
<circle cx = "90" cy = "200.526" r="10" fill="green" stroke = "yellow" stroke-width = "0.6"/>
<circle cx = "20" cy = "217.846" r="10" fill="green" stroke = "yellow" stroke-width = "0.6"/>
<circle cx = "40" cy = "217.846" r="10" fill="green" stroke = "yellow" stroke-width = "0.6"/>
<circle cx = "60" cy = "217.846" r="10" fill="green" stroke = "yellow" stroke-width = "0.6"/>
<circle cx = "80" cy = "217.846" r="10" fill="green" stroke = "yellow" stroke-width = "0.6"/>
<circle cx = "10" cy = "235.167" r="10" fill="green" stroke = "yellow" stroke-width = "0.6"/>
<circle cx = "30" cy = "235.167" r="10" fill="green" stroke = "yellow" stroke-width = "0.6"/>
<circle cx = "50" cy = "235.167" r="10" fill="green" stroke = "yellow" stroke-width = "0.6"/>
<circle cx = "70" cy = "235.167" r="10" fill="green" stroke = "yellow" stroke-width = "0.6"/>
<circle cx = "90" cy = "235.167" r="10" fill="green" stroke = "yellow" stroke-width = "0.6"/>
<circle cx = "20" cy = "252.487" r="10" fill="green" stroke = "yellow" stroke-width = "0.6"/>
<circle cx = "40" cy = "252.487" r="10" fill="green" stroke = "yellow" stroke-width = "0.6"/>
<circle cx = "60" cy = "252.487" r="10" fill="green" stroke = "yellow" stroke-width = "0.6"/>
<circle cx = "80" cy = "252.487" r="10" fill="green" stroke = "yellow" stroke-width = "0.6"/>
<circle cx = "10" cy = "269.808" r="10" fill="green" stroke = "yellow" stroke-width = "0.6"/>
<circle cx = "30" cy = "269.808" r="10" fill="green" stroke = "yellow" stroke-width = "0.6"/>
<circle cx = "50" cy = "269.808" r="10" fill="green" stroke = "yellow" stroke-width = "0.6"/>
<circle cx = "70" cy = "269.808" r="10" fill="green" stroke = "yellow" stroke-width = "0.6"/>
<circle cx = "90" cy = "269.808" r="10" fill="green" stroke = "yellow" stroke-width = "0.6"/>
<circle cx = "20" cy = "287.128" r="10" fill="green" stroke = "yellow" stroke-width = "0.6"/>
<circle cx = "40" cy = "287.128" r="10" fill="green" stroke = "yellow" stroke-width = "0.6"/>
<circle cx = "60" cy = "287.128" r="10" fill="green" stroke = "yellow" stroke-width = "0.6"/>
<circle cx = "80" cy = "287.128" r="10" fill="green" stroke = "yellow" stroke-width = "0.6"/>
</svg>
